<?xml version="1.0" encoding="utf-8" standalone="no"?>
<!DOCTYPE svg PUBLIC "-//W3C//DTD SVG 1.1//EN"
  "http://www.w3.org/Graphics/SVG/1.1/DTD/svg11.dtd">
<svg xmlns:xlink="http://www.w3.org/1999/xlink" width="856.83125pt" height="447.50875pt" viewBox="0 0 856.83125 447.50875" xmlns="http://www.w3.org/2000/svg" version="1.1">
 <metadata>
  <rdf:RDF xmlns:dc="http://purl.org/dc/elements/1.1/" xmlns:cc="http://creativecommons.org/ns#" xmlns:rdf="http://www.w3.org/1999/02/22-rdf-syntax-ns#">
   <cc:Work>
    <dc:type rdf:resource="http://purl.org/dc/dcmitype/StillImage"/>
    <dc:date>2025-09-25T21:37:58.994327</dc:date>
    <dc:format>image/svg+xml</dc:format>
    <dc:creator>
     <cc:Agent>
      <dc:title>Matplotlib v3.10.6, https://matplotlib.org/</dc:title>
     </cc:Agent>
    </dc:creator>
   </cc:Work>
  </rdf:RDF>
 </metadata>
 <defs>
  <style type="text/css">*{stroke-linejoin: round; stroke-linecap: butt}</style>
 </defs>
 <g id="figure_1">
  <g id="patch_1">
   <path d="M -0 447.50875 
L 856.83125 447.50875 
L 856.83125 0 
L -0 0 
z
" style="fill: #ffffff"/>
  </g>
  <g id="axes_1">
   <g id="patch_2">
    <path d="M 10.38125 409.9525 
L 421.523911 409.9525 
L 421.523911 100.7925 
L 10.38125 100.7925 
z
" style="fill: #ffffff"/>
   </g>
   <g id="patch_3">
    <path d="M 10.38125 137.788455 
L 275.268798 137.788455 
L 275.268798 114.845227 
L 10.38125 114.845227 
z
" clip-path="url(#p3fa74c8b32)" style="fill: #228b22"/>
   </g>
   <g id="patch_4">
    <path d="M 10.38125 166.467491 
L 274.003529 166.467491 
L 274.003529 143.524263 
L 10.38125 143.524263 
z
" clip-path="url(#p3fa74c8b32)" style="fill: #32cd32"/>
   </g>
   <g id="patch_5">
    <path d="M 10.38125 195.146526 
L 367.896608 195.146526 
L 367.896608 172.203298 
L 10.38125 172.203298 
z
" clip-path="url(#p3fa74c8b32)" style="fill: #808000"/>
   </g>
   <g id="patch_6">
    <path d="M 10.38125 223.825561 
L 92.388046 223.825561 
L 92.388046 200.882333 
L 10.38125 200.882333 
z
" clip-path="url(#p3fa74c8b32)" style="fill: #8a2be2"/>
   </g>
   <g id="patch_7">
    <path d="M 10.38125 252.504596 
L 147.560228 252.504596 
L 147.560228 229.561368 
L 10.38125 229.561368 
z
" clip-path="url(#p3fa74c8b32)" style="fill: url(#h2649375973)"/>
   </g>
   <g id="patch_8">
    <path d="M 10.38125 281.183632 
L 47.240872 281.183632 
L 47.240872 258.240404 
L 10.38125 258.240404 
z
" clip-path="url(#p3fa74c8b32)" style="fill: url(#hd6704d8eac)"/>
   </g>
   <g id="patch_9">
    <path d="M 10.38125 309.862667 
L 46.783814 309.862667 
L 46.783814 286.919439 
L 10.38125 286.919439 
z
" clip-path="url(#p3fa74c8b32)" style="fill: #ee82ee"/>
   </g>
   <g id="patch_10">
    <path d="M 10.38125 338.541702 
L 46.376523 338.541702 
L 46.376523 315.598474 
L 10.38125 315.598474 
z
" clip-path="url(#p3fa74c8b32)" style="fill: #6495ed"/>
   </g>
   <g id="patch_11">
    <path d="M 10.38125 367.220737 
L 204.592889 367.220737 
L 204.592889 344.277509 
L 10.38125 344.277509 
z
" clip-path="url(#p3fa74c8b32)" style="fill: #ffa500"/>
   </g>
   <g id="patch_12">
    <path d="M 10.38125 395.899773 
L 205.634009 395.899773 
L 205.634009 372.956545 
L 10.38125 372.956545 
z
" clip-path="url(#p3fa74c8b32)" style="fill: #ff6347"/>
   </g>
   <g id="matplotlib.axis_1">
    <g id="xtick_1">
     <g id="line2d_1">
      <defs>
       <path id="mfa7db6bbba" d="M 0 0 
L 0 3.5 
" style="stroke: #000000; stroke-width: 0.8"/>
      </defs>
      <g>
       <use xlink:href="#mfa7db6bbba" x="10.38125" y="409.9525" style="stroke: #000000; stroke-width: 0.8"/>
      </g>
     </g>
     <g id="text_1">
      <!-- 0 -->
      <g transform="translate(7.2 424.550937) scale(0.1 -0.1)">
       <defs>
        <path id="DejaVuSans-30" d="M 2034 4250 
Q 1547 4250 1301 3770 
Q 1056 3291 1056 2328 
Q 1056 1369 1301 889 
Q 1547 409 2034 409 
Q 2525 409 2770 889 
Q 3016 1369 3016 2328 
Q 3016 3291 2770 3770 
Q 2525 4250 2034 4250 
z
M 2034 4750 
Q 2819 4750 3233 4129 
Q 3647 3509 3647 2328 
Q 3647 1150 3233 529 
Q 2819 -91 2034 -91 
Q 1250 -91 836 529 
Q 422 1150 422 2328 
Q 422 3509 836 4129 
Q 1250 4750 2034 4750 
z
" transform="scale(0.015625)"/>
       </defs>
       <use xlink:href="#DejaVuSans-30"/>
      </g>
     </g>
    </g>
    <g id="xtick_2">
     <g id="line2d_2">
      <g>
       <use xlink:href="#mfa7db6bbba" x="90.008002" y="409.9525" style="stroke: #000000; stroke-width: 0.8"/>
      </g>
     </g>
     <g id="text_2">
      <!-- 200 -->
      <g transform="translate(80.464252 424.550937) scale(0.1 -0.1)">
       <defs>
        <path id="DejaVuSans-32" d="M 1228 531 
L 3431 531 
L 3431 0 
L 469 0 
L 469 531 
Q 828 903 1448 1529 
Q 2069 2156 2228 2338 
Q 2531 2678 2651 2914 
Q 2772 3150 2772 3378 
Q 2772 3750 2511 3984 
Q 2250 4219 1831 4219 
Q 1534 4219 1204 4116 
Q 875 4013 500 3803 
L 500 4441 
Q 881 4594 1212 4672 
Q 1544 4750 1819 4750 
Q 2544 4750 2975 4387 
Q 3406 4025 3406 3419 
Q 3406 3131 3298 2873 
Q 3191 2616 2906 2266 
Q 2828 2175 2409 1742 
Q 1991 1309 1228 531 
z
" transform="scale(0.015625)"/>
       </defs>
       <use xlink:href="#DejaVuSans-32"/>
       <use xlink:href="#DejaVuSans-30" transform="translate(63.623047 0)"/>
       <use xlink:href="#DejaVuSans-30" transform="translate(127.246094 0)"/>
      </g>
     </g>
    </g>
    <g id="xtick_3">
     <g id="line2d_3">
      <g>
       <use xlink:href="#mfa7db6bbba" x="169.634754" y="409.9525" style="stroke: #000000; stroke-width: 0.8"/>
      </g>
     </g>
     <g id="text_3">
      <!-- 400 -->
      <g transform="translate(160.091004 424.550937) scale(0.1 -0.1)">
       <defs>
        <path id="DejaVuSans-34" d="M 2419 4116 
L 825 1625 
L 2419 1625 
L 2419 4116 
z
M 2253 4666 
L 3047 4666 
L 3047 1625 
L 3713 1625 
L 3713 1100 
L 3047 1100 
L 3047 0 
L 2419 0 
L 2419 1100 
L 313 1100 
L 313 1709 
L 2253 4666 
z
" transform="scale(0.015625)"/>
       </defs>
       <use xlink:href="#DejaVuSans-34"/>
       <use xlink:href="#DejaVuSans-30" transform="translate(63.623047 0)"/>
       <use xlink:href="#DejaVuSans-30" transform="translate(127.246094 0)"/>
      </g>
     </g>
    </g>
    <g id="xtick_4">
     <g id="line2d_4">
      <g>
       <use xlink:href="#mfa7db6bbba" x="249.261506" y="409.9525" style="stroke: #000000; stroke-width: 0.8"/>
      </g>
     </g>
     <g id="text_4">
      <!-- 600 -->
      <g transform="translate(239.717756 424.550937) scale(0.1 -0.1)">
       <defs>
        <path id="DejaVuSans-36" d="M 2113 2584 
Q 1688 2584 1439 2293 
Q 1191 2003 1191 1497 
Q 1191 994 1439 701 
Q 1688 409 2113 409 
Q 2538 409 2786 701 
Q 3034 994 3034 1497 
Q 3034 2003 2786 2293 
Q 2538 2584 2113 2584 
z
M 3366 4563 
L 3366 3988 
Q 3128 4100 2886 4159 
Q 2644 4219 2406 4219 
Q 1781 4219 1451 3797 
Q 1122 3375 1075 2522 
Q 1259 2794 1537 2939 
Q 1816 3084 2150 3084 
Q 2853 3084 3261 2657 
Q 3669 2231 3669 1497 
Q 3669 778 3244 343 
Q 2819 -91 2113 -91 
Q 1303 -91 875 529 
Q 447 1150 447 2328 
Q 447 3434 972 4092 
Q 1497 4750 2381 4750 
Q 2619 4750 2861 4703 
Q 3103 4656 3366 4563 
z
" transform="scale(0.015625)"/>
       </defs>
       <use xlink:href="#DejaVuSans-36"/>
       <use xlink:href="#DejaVuSans-30" transform="translate(63.623047 0)"/>
       <use xlink:href="#DejaVuSans-30" transform="translate(127.246094 0)"/>
      </g>
     </g>
    </g>
    <g id="xtick_5">
     <g id="line2d_5">
      <g>
       <use xlink:href="#mfa7db6bbba" x="328.888258" y="409.9525" style="stroke: #000000; stroke-width: 0.8"/>
      </g>
     </g>
     <g id="text_5">
      <!-- 800 -->
      <g transform="translate(319.344508 424.550937) scale(0.1 -0.1)">
       <defs>
        <path id="DejaVuSans-38" d="M 2034 2216 
Q 1584 2216 1326 1975 
Q 1069 1734 1069 1313 
Q 1069 891 1326 650 
Q 1584 409 2034 409 
Q 2484 409 2743 651 
Q 3003 894 3003 1313 
Q 3003 1734 2745 1975 
Q 2488 2216 2034 2216 
z
M 1403 2484 
Q 997 2584 770 2862 
Q 544 3141 544 3541 
Q 544 4100 942 4425 
Q 1341 4750 2034 4750 
Q 2731 4750 3128 4425 
Q 3525 4100 3525 3541 
Q 3525 3141 3298 2862 
Q 3072 2584 2669 2484 
Q 3125 2378 3379 2068 
Q 3634 1759 3634 1313 
Q 3634 634 3220 271 
Q 2806 -91 2034 -91 
Q 1263 -91 848 271 
Q 434 634 434 1313 
Q 434 1759 690 2068 
Q 947 2378 1403 2484 
z
M 1172 3481 
Q 1172 3119 1398 2916 
Q 1625 2713 2034 2713 
Q 2441 2713 2670 2916 
Q 2900 3119 2900 3481 
Q 2900 3844 2670 4047 
Q 2441 4250 2034 4250 
Q 1625 4250 1398 4047 
Q 1172 3844 1172 3481 
z
" transform="scale(0.015625)"/>
       </defs>
       <use xlink:href="#DejaVuSans-38"/>
       <use xlink:href="#DejaVuSans-30" transform="translate(63.623047 0)"/>
       <use xlink:href="#DejaVuSans-30" transform="translate(127.246094 0)"/>
      </g>
     </g>
    </g>
    <g id="xtick_6">
     <g id="line2d_6">
      <g>
       <use xlink:href="#mfa7db6bbba" x="408.51501" y="409.9525" style="stroke: #000000; stroke-width: 0.8"/>
      </g>
     </g>
     <g id="text_6">
      <!-- 1000 -->
      <g transform="translate(395.79001 424.550937) scale(0.1 -0.1)">
       <defs>
        <path id="DejaVuSans-31" d="M 794 531 
L 1825 531 
L 1825 4091 
L 703 3866 
L 703 4441 
L 1819 4666 
L 2450 4666 
L 2450 531 
L 3481 531 
L 3481 0 
L 794 0 
L 794 531 
z
" transform="scale(0.015625)"/>
       </defs>
       <use xlink:href="#DejaVuSans-31"/>
       <use xlink:href="#DejaVuSans-30" transform="translate(63.623047 0)"/>
       <use xlink:href="#DejaVuSans-30" transform="translate(127.246094 0)"/>
       <use xlink:href="#DejaVuSans-30" transform="translate(190.869141 0)"/>
      </g>
     </g>
    </g>
    <g id="text_7">
     <!-- seconds -->
     <g transform="translate(195.515081 438.229062) scale(0.1 -0.1)">
      <defs>
       <path id="DejaVuSans-73" d="M 2834 3397 
L 2834 2853 
Q 2591 2978 2328 3040 
Q 2066 3103 1784 3103 
Q 1356 3103 1142 2972 
Q 928 2841 928 2578 
Q 928 2378 1081 2264 
Q 1234 2150 1697 2047 
L 1894 2003 
Q 2506 1872 2764 1633 
Q 3022 1394 3022 966 
Q 3022 478 2636 193 
Q 2250 -91 1575 -91 
Q 1294 -91 989 -36 
Q 684 19 347 128 
L 347 722 
Q 666 556 975 473 
Q 1284 391 1588 391 
Q 1994 391 2212 530 
Q 2431 669 2431 922 
Q 2431 1156 2273 1281 
Q 2116 1406 1581 1522 
L 1381 1569 
Q 847 1681 609 1914 
Q 372 2147 372 2553 
Q 372 3047 722 3315 
Q 1072 3584 1716 3584 
Q 2034 3584 2315 3537 
Q 2597 3491 2834 3397 
z
" transform="scale(0.015625)"/>
       <path id="DejaVuSans-65" d="M 3597 1894 
L 3597 1613 
L 953 1613 
Q 991 1019 1311 708 
Q 1631 397 2203 397 
Q 2534 397 2845 478 
Q 3156 559 3463 722 
L 3463 178 
Q 3153 47 2828 -22 
Q 2503 -91 2169 -91 
Q 1331 -91 842 396 
Q 353 884 353 1716 
Q 353 2575 817 3079 
Q 1281 3584 2069 3584 
Q 2775 3584 3186 3129 
Q 3597 2675 3597 1894 
z
M 3022 2063 
Q 3016 2534 2758 2815 
Q 2500 3097 2075 3097 
Q 1594 3097 1305 2825 
Q 1016 2553 972 2059 
L 3022 2063 
z
" transform="scale(0.015625)"/>
       <path id="DejaVuSans-63" d="M 3122 3366 
L 3122 2828 
Q 2878 2963 2633 3030 
Q 2388 3097 2138 3097 
Q 1578 3097 1268 2742 
Q 959 2388 959 1747 
Q 959 1106 1268 751 
Q 1578 397 2138 397 
Q 2388 397 2633 464 
Q 2878 531 3122 666 
L 3122 134 
Q 2881 22 2623 -34 
Q 2366 -91 2075 -91 
Q 1284 -91 818 406 
Q 353 903 353 1747 
Q 353 2603 823 3093 
Q 1294 3584 2113 3584 
Q 2378 3584 2631 3529 
Q 2884 3475 3122 3366 
z
" transform="scale(0.015625)"/>
       <path id="DejaVuSans-6f" d="M 1959 3097 
Q 1497 3097 1228 2736 
Q 959 2375 959 1747 
Q 959 1119 1226 758 
Q 1494 397 1959 397 
Q 2419 397 2687 759 
Q 2956 1122 2956 1747 
Q 2956 2369 2687 2733 
Q 2419 3097 1959 3097 
z
M 1959 3584 
Q 2709 3584 3137 3096 
Q 3566 2609 3566 1747 
Q 3566 888 3137 398 
Q 2709 -91 1959 -91 
Q 1206 -91 779 398 
Q 353 888 353 1747 
Q 353 2609 779 3096 
Q 1206 3584 1959 3584 
z
" transform="scale(0.015625)"/>
       <path id="DejaVuSans-6e" d="M 3513 2113 
L 3513 0 
L 2938 0 
L 2938 2094 
Q 2938 2591 2744 2837 
Q 2550 3084 2163 3084 
Q 1697 3084 1428 2787 
Q 1159 2491 1159 1978 
L 1159 0 
L 581 0 
L 581 3500 
L 1159 3500 
L 1159 2956 
Q 1366 3272 1645 3428 
Q 1925 3584 2291 3584 
Q 2894 3584 3203 3211 
Q 3513 2838 3513 2113 
z
" transform="scale(0.015625)"/>
       <path id="DejaVuSans-64" d="M 2906 2969 
L 2906 4863 
L 3481 4863 
L 3481 0 
L 2906 0 
L 2906 525 
Q 2725 213 2448 61 
Q 2172 -91 1784 -91 
Q 1150 -91 751 415 
Q 353 922 353 1747 
Q 353 2572 751 3078 
Q 1150 3584 1784 3584 
Q 2172 3584 2448 3432 
Q 2725 3281 2906 2969 
z
M 947 1747 
Q 947 1113 1208 752 
Q 1469 391 1925 391 
Q 2381 391 2643 752 
Q 2906 1113 2906 1747 
Q 2906 2381 2643 2742 
Q 2381 3103 1925 3103 
Q 1469 3103 1208 2742 
Q 947 2381 947 1747 
z
" transform="scale(0.015625)"/>
      </defs>
      <use xlink:href="#DejaVuSans-73"/>
      <use xlink:href="#DejaVuSans-65" transform="translate(52.099609 0)"/>
      <use xlink:href="#DejaVuSans-63" transform="translate(113.623047 0)"/>
      <use xlink:href="#DejaVuSans-6f" transform="translate(168.603516 0)"/>
      <use xlink:href="#DejaVuSans-6e" transform="translate(229.785156 0)"/>
      <use xlink:href="#DejaVuSans-64" transform="translate(293.164062 0)"/>
      <use xlink:href="#DejaVuSans-73" transform="translate(356.640625 0)"/>
     </g>
    </g>
   </g>
   <g id="matplotlib.axis_2"/>
   <g id="patch_13">
    <path d="M 10.38125 409.9525 
L 10.38125 100.7925 
" style="fill: none; stroke: #000000; stroke-width: 0.8; stroke-linejoin: miter; stroke-linecap: square"/>
   </g>
   <g id="patch_14">
    <path d="M 421.523911 409.9525 
L 421.523911 100.7925 
" style="fill: none; stroke: #000000; stroke-width: 0.8; stroke-linejoin: miter; stroke-linecap: square"/>
   </g>
   <g id="patch_15">
    <path d="M 10.38125 409.9525 
L 421.523911 409.9525 
" style="fill: none; stroke: #000000; stroke-width: 0.8; stroke-linejoin: miter; stroke-linecap: square"/>
   </g>
   <g id="patch_16">
    <path d="M 10.38125 100.7925 
L 421.523911 100.7925 
" style="fill: none; stroke: #000000; stroke-width: 0.8; stroke-linejoin: miter; stroke-linecap: square"/>
   </g>
   <g id="text_8">
    <!-- 665.3 -->
    <g transform="translate(277.268798 129.076216) scale(0.1 -0.1)">
     <defs>
      <path id="DejaVuSans-35" d="M 691 4666 
L 3169 4666 
L 3169 4134 
L 1269 4134 
L 1269 2991 
Q 1406 3038 1543 3061 
Q 1681 3084 1819 3084 
Q 2600 3084 3056 2656 
Q 3513 2228 3513 1497 
Q 3513 744 3044 326 
Q 2575 -91 1722 -91 
Q 1428 -91 1123 -41 
Q 819 9 494 109 
L 494 744 
Q 775 591 1075 516 
Q 1375 441 1709 441 
Q 2250 441 2565 725 
Q 2881 1009 2881 1497 
Q 2881 1984 2565 2268 
Q 2250 2553 1709 2553 
Q 1456 2553 1204 2497 
Q 953 2441 691 2322 
L 691 4666 
z
" transform="scale(0.015625)"/>
      <path id="DejaVuSans-2e" d="M 684 794 
L 1344 794 
L 1344 0 
L 684 0 
L 684 794 
z
" transform="scale(0.015625)"/>
      <path id="DejaVuSans-33" d="M 2597 2516 
Q 3050 2419 3304 2112 
Q 3559 1806 3559 1356 
Q 3559 666 3084 287 
Q 2609 -91 1734 -91 
Q 1441 -91 1130 -33 
Q 819 25 488 141 
L 488 750 
Q 750 597 1062 519 
Q 1375 441 1716 441 
Q 2309 441 2620 675 
Q 2931 909 2931 1356 
Q 2931 1769 2642 2001 
Q 2353 2234 1838 2234 
L 1294 2234 
L 1294 2753 
L 1863 2753 
Q 2328 2753 2575 2939 
Q 2822 3125 2822 3475 
Q 2822 3834 2567 4026 
Q 2313 4219 1838 4219 
Q 1578 4219 1281 4162 
Q 984 4106 628 3988 
L 628 4550 
Q 988 4650 1302 4700 
Q 1616 4750 1894 4750 
Q 2613 4750 3031 4423 
Q 3450 4097 3450 3541 
Q 3450 3153 3228 2886 
Q 3006 2619 2597 2516 
z
" transform="scale(0.015625)"/>
     </defs>
     <use xlink:href="#DejaVuSans-36"/>
     <use xlink:href="#DejaVuSans-36" transform="translate(63.623047 0)"/>
     <use xlink:href="#DejaVuSans-35" transform="translate(127.246094 0)"/>
     <use xlink:href="#DejaVuSans-2e" transform="translate(190.869141 0)"/>
     <use xlink:href="#DejaVuSans-33" transform="translate(222.65625 0)"/>
    </g>
   </g>
   <g id="text_9">
    <!-- 662.1 -->
    <g transform="translate(276.003529 157.755252) scale(0.1 -0.1)">
     <use xlink:href="#DejaVuSans-36"/>
     <use xlink:href="#DejaVuSans-36" transform="translate(63.623047 0)"/>
     <use xlink:href="#DejaVuSans-32" transform="translate(127.246094 0)"/>
     <use xlink:href="#DejaVuSans-2e" transform="translate(190.869141 0)"/>
     <use xlink:href="#DejaVuSans-31" transform="translate(222.65625 0)"/>
    </g>
   </g>
   <g id="text_10">
    <!-- 898.0 -->
    <g transform="translate(369.896608 186.434287) scale(0.1 -0.1)">
     <defs>
      <path id="DejaVuSans-39" d="M 703 97 
L 703 672 
Q 941 559 1184 500 
Q 1428 441 1663 441 
Q 2288 441 2617 861 
Q 2947 1281 2994 2138 
Q 2813 1869 2534 1725 
Q 2256 1581 1919 1581 
Q 1219 1581 811 2004 
Q 403 2428 403 3163 
Q 403 3881 828 4315 
Q 1253 4750 1959 4750 
Q 2769 4750 3195 4129 
Q 3622 3509 3622 2328 
Q 3622 1225 3098 567 
Q 2575 -91 1691 -91 
Q 1453 -91 1209 -44 
Q 966 3 703 97 
z
M 1959 2075 
Q 2384 2075 2632 2365 
Q 2881 2656 2881 3163 
Q 2881 3666 2632 3958 
Q 2384 4250 1959 4250 
Q 1534 4250 1286 3958 
Q 1038 3666 1038 3163 
Q 1038 2656 1286 2365 
Q 1534 2075 1959 2075 
z
" transform="scale(0.015625)"/>
     </defs>
     <use xlink:href="#DejaVuSans-38"/>
     <use xlink:href="#DejaVuSans-39" transform="translate(63.623047 0)"/>
     <use xlink:href="#DejaVuSans-38" transform="translate(127.246094 0)"/>
     <use xlink:href="#DejaVuSans-2e" transform="translate(190.869141 0)"/>
     <use xlink:href="#DejaVuSans-30" transform="translate(222.65625 0)"/>
    </g>
   </g>
   <g id="text_11">
    <!-- 206.0 -->
    <g transform="translate(94.388046 215.113322) scale(0.1 -0.1)">
     <use xlink:href="#DejaVuSans-32"/>
     <use xlink:href="#DejaVuSans-30" transform="translate(63.623047 0)"/>
     <use xlink:href="#DejaVuSans-36" transform="translate(127.246094 0)"/>
     <use xlink:href="#DejaVuSans-2e" transform="translate(190.869141 0)"/>
     <use xlink:href="#DejaVuSans-30" transform="translate(222.65625 0)"/>
    </g>
   </g>
   <g id="text_12">
    <!-- 344.6 -->
    <g transform="translate(149.560228 243.792357) scale(0.1 -0.1)">
     <use xlink:href="#DejaVuSans-33"/>
     <use xlink:href="#DejaVuSans-34" transform="translate(63.623047 0)"/>
     <use xlink:href="#DejaVuSans-34" transform="translate(127.246094 0)"/>
     <use xlink:href="#DejaVuSans-2e" transform="translate(190.869141 0)"/>
     <use xlink:href="#DejaVuSans-36" transform="translate(222.65625 0)"/>
    </g>
   </g>
   <g id="text_13">
    <!-- 92.6 -->
    <g transform="translate(49.240872 272.471393) scale(0.1 -0.1)">
     <use xlink:href="#DejaVuSans-39"/>
     <use xlink:href="#DejaVuSans-32" transform="translate(63.623047 0)"/>
     <use xlink:href="#DejaVuSans-2e" transform="translate(127.246094 0)"/>
     <use xlink:href="#DejaVuSans-36" transform="translate(159.033203 0)"/>
    </g>
   </g>
   <g id="text_14">
    <!-- 91.4 -->
    <g transform="translate(48.783814 301.150428) scale(0.1 -0.1)">
     <use xlink:href="#DejaVuSans-39"/>
     <use xlink:href="#DejaVuSans-31" transform="translate(63.623047 0)"/>
     <use xlink:href="#DejaVuSans-2e" transform="translate(127.246094 0)"/>
     <use xlink:href="#DejaVuSans-34" transform="translate(159.033203 0)"/>
    </g>
   </g>
   <g id="text_15">
    <!-- 90.4 -->
    <g transform="translate(48.376523 329.829463) scale(0.1 -0.1)">
     <use xlink:href="#DejaVuSans-39"/>
     <use xlink:href="#DejaVuSans-30" transform="translate(63.623047 0)"/>
     <use xlink:href="#DejaVuSans-2e" transform="translate(127.246094 0)"/>
     <use xlink:href="#DejaVuSans-34" transform="translate(159.033203 0)"/>
    </g>
   </g>
   <g id="text_16">
    <!-- 487.8 -->
    <g transform="translate(206.592889 358.508498) scale(0.1 -0.1)">
     <defs>
      <path id="DejaVuSans-37" d="M 525 4666 
L 3525 4666 
L 3525 4397 
L 1831 0 
L 1172 0 
L 2766 4134 
L 525 4134 
L 525 4666 
z
" transform="scale(0.015625)"/>
     </defs>
     <use xlink:href="#DejaVuSans-34"/>
     <use xlink:href="#DejaVuSans-38" transform="translate(63.623047 0)"/>
     <use xlink:href="#DejaVuSans-37" transform="translate(127.246094 0)"/>
     <use xlink:href="#DejaVuSans-2e" transform="translate(190.869141 0)"/>
     <use xlink:href="#DejaVuSans-38" transform="translate(222.65625 0)"/>
    </g>
   </g>
   <g id="text_17">
    <!-- 490.4 -->
    <g transform="translate(207.634009 387.187534) scale(0.1 -0.1)">
     <use xlink:href="#DejaVuSans-34"/>
     <use xlink:href="#DejaVuSans-39" transform="translate(63.623047 0)"/>
     <use xlink:href="#DejaVuSans-30" transform="translate(127.246094 0)"/>
     <use xlink:href="#DejaVuSans-2e" transform="translate(190.869141 0)"/>
     <use xlink:href="#DejaVuSans-34" transform="translate(222.65625 0)"/>
    </g>
   </g>
   <g id="text_18">
    <!-- running time in seconds -->
    <g transform="translate(143.529768 94.7925) scale(0.12 -0.12)">
     <defs>
      <path id="DejaVuSans-72" d="M 2631 2963 
Q 2534 3019 2420 3045 
Q 2306 3072 2169 3072 
Q 1681 3072 1420 2755 
Q 1159 2438 1159 1844 
L 1159 0 
L 581 0 
L 581 3500 
L 1159 3500 
L 1159 2956 
Q 1341 3275 1631 3429 
Q 1922 3584 2338 3584 
Q 2397 3584 2469 3576 
Q 2541 3569 2628 3553 
L 2631 2963 
z
" transform="scale(0.015625)"/>
      <path id="DejaVuSans-75" d="M 544 1381 
L 544 3500 
L 1119 3500 
L 1119 1403 
Q 1119 906 1312 657 
Q 1506 409 1894 409 
Q 2359 409 2629 706 
Q 2900 1003 2900 1516 
L 2900 3500 
L 3475 3500 
L 3475 0 
L 2900 0 
L 2900 538 
Q 2691 219 2414 64 
Q 2138 -91 1772 -91 
Q 1169 -91 856 284 
Q 544 659 544 1381 
z
M 1991 3584 
L 1991 3584 
z
" transform="scale(0.015625)"/>
      <path id="DejaVuSans-69" d="M 603 3500 
L 1178 3500 
L 1178 0 
L 603 0 
L 603 3500 
z
M 603 4863 
L 1178 4863 
L 1178 4134 
L 603 4134 
L 603 4863 
z
" transform="scale(0.015625)"/>
      <path id="DejaVuSans-67" d="M 2906 1791 
Q 2906 2416 2648 2759 
Q 2391 3103 1925 3103 
Q 1463 3103 1205 2759 
Q 947 2416 947 1791 
Q 947 1169 1205 825 
Q 1463 481 1925 481 
Q 2391 481 2648 825 
Q 2906 1169 2906 1791 
z
M 3481 434 
Q 3481 -459 3084 -895 
Q 2688 -1331 1869 -1331 
Q 1566 -1331 1297 -1286 
Q 1028 -1241 775 -1147 
L 775 -588 
Q 1028 -725 1275 -790 
Q 1522 -856 1778 -856 
Q 2344 -856 2625 -561 
Q 2906 -266 2906 331 
L 2906 616 
Q 2728 306 2450 153 
Q 2172 0 1784 0 
Q 1141 0 747 490 
Q 353 981 353 1791 
Q 353 2603 747 3093 
Q 1141 3584 1784 3584 
Q 2172 3584 2450 3431 
Q 2728 3278 2906 2969 
L 2906 3500 
L 3481 3500 
L 3481 434 
z
" transform="scale(0.015625)"/>
      <path id="DejaVuSans-20" transform="scale(0.015625)"/>
      <path id="DejaVuSans-74" d="M 1172 4494 
L 1172 3500 
L 2356 3500 
L 2356 3053 
L 1172 3053 
L 1172 1153 
Q 1172 725 1289 603 
Q 1406 481 1766 481 
L 2356 481 
L 2356 0 
L 1766 0 
Q 1100 0 847 248 
Q 594 497 594 1153 
L 594 3053 
L 172 3053 
L 172 3500 
L 594 3500 
L 594 4494 
L 1172 4494 
z
" transform="scale(0.015625)"/>
      <path id="DejaVuSans-6d" d="M 3328 2828 
Q 3544 3216 3844 3400 
Q 4144 3584 4550 3584 
Q 5097 3584 5394 3201 
Q 5691 2819 5691 2113 
L 5691 0 
L 5113 0 
L 5113 2094 
Q 5113 2597 4934 2840 
Q 4756 3084 4391 3084 
Q 3944 3084 3684 2787 
Q 3425 2491 3425 1978 
L 3425 0 
L 2847 0 
L 2847 2094 
Q 2847 2600 2669 2842 
Q 2491 3084 2119 3084 
Q 1678 3084 1418 2786 
Q 1159 2488 1159 1978 
L 1159 0 
L 581 0 
L 581 3500 
L 1159 3500 
L 1159 2956 
Q 1356 3278 1631 3431 
Q 1906 3584 2284 3584 
Q 2666 3584 2933 3390 
Q 3200 3197 3328 2828 
z
" transform="scale(0.015625)"/>
     </defs>
     <use xlink:href="#DejaVuSans-72"/>
     <use xlink:href="#DejaVuSans-75" transform="translate(41.113281 0)"/>
     <use xlink:href="#DejaVuSans-6e" transform="translate(104.492188 0)"/>
     <use xlink:href="#DejaVuSans-6e" transform="translate(167.871094 0)"/>
     <use xlink:href="#DejaVuSans-69" transform="translate(231.25 0)"/>
     <use xlink:href="#DejaVuSans-6e" transform="translate(259.033203 0)"/>
     <use xlink:href="#DejaVuSans-67" transform="translate(322.412109 0)"/>
     <use xlink:href="#DejaVuSans-20" transform="translate(385.888672 0)"/>
     <use xlink:href="#DejaVuSans-74" transform="translate(417.675781 0)"/>
     <use xlink:href="#DejaVuSans-69" transform="translate(456.884766 0)"/>
     <use xlink:href="#DejaVuSans-6d" transform="translate(484.667969 0)"/>
     <use xlink:href="#DejaVuSans-65" transform="translate(582.080078 0)"/>
     <use xlink:href="#DejaVuSans-20" transform="translate(643.603516 0)"/>
     <use xlink:href="#DejaVuSans-69" transform="translate(675.390625 0)"/>
     <use xlink:href="#DejaVuSans-6e" transform="translate(703.173828 0)"/>
     <use xlink:href="#DejaVuSans-20" transform="translate(766.552734 0)"/>
     <use xlink:href="#DejaVuSans-73" transform="translate(798.339844 0)"/>
     <use xlink:href="#DejaVuSans-65" transform="translate(850.439453 0)"/>
     <use xlink:href="#DejaVuSans-63" transform="translate(911.962891 0)"/>
     <use xlink:href="#DejaVuSans-6f" transform="translate(966.943359 0)"/>
     <use xlink:href="#DejaVuSans-6e" transform="translate(1028.125 0)"/>
     <use xlink:href="#DejaVuSans-64" transform="translate(1091.503906 0)"/>
     <use xlink:href="#DejaVuSans-73" transform="translate(1154.980469 0)"/>
    </g>
   </g>
  </g>
  <g id="axes_2">
   <g id="patch_17">
    <path d="M 438.488589 409.9525 
L 849.63125 409.9525 
L 849.63125 100.7925 
L 438.488589 100.7925 
z
" style="fill: #ffffff"/>
   </g>
   <g id="patch_18">
    <path d="M 438.488589 137.788455 
L 709.162236 137.788455 
L 709.162236 114.845227 
L 438.488589 114.845227 
z
" clip-path="url(#p976ce89111)" style="fill: #228b22"/>
   </g>
   <g id="patch_19">
    <path d="M 438.488589 166.467491 
L 709.165812 166.467491 
L 709.165812 143.524263 
L 438.488589 143.524263 
z
" clip-path="url(#p976ce89111)" style="fill: #32cd32"/>
   </g>
   <g id="patch_20">
    <path d="M 438.488589 195.146526 
L 796.003946 195.146526 
L 796.003946 172.203298 
L 438.488589 172.203298 
z
" clip-path="url(#p976ce89111)" style="fill: #808000"/>
   </g>
   <g id="patch_21">
    <path d="M 438.488589 223.825561 
L 544.085247 223.825561 
L 544.085247 200.882333 
L 438.488589 200.882333 
z
" clip-path="url(#p976ce89111)" style="fill: #8a2be2"/>
   </g>
   <g id="patch_22">
    <path d="M 438.488589 252.504596 
L 491.547136 252.504596 
L 491.547136 229.561368 
L 438.488589 229.561368 
z
" clip-path="url(#p976ce89111)" style="fill: url(#h2649375973)"/>
   </g>
   <g id="patch_23">
    <path d="M 438.488589 281.183632 
L 533.58373 281.183632 
L 533.58373 258.240404 
L 438.488589 258.240404 
z
" clip-path="url(#p976ce89111)" style="fill: url(#hd6704d8eac)"/>
   </g>
   <g id="patch_24">
    <path d="M 438.488589 309.862667 
L 544.093169 309.862667 
L 544.093169 286.919439 
L 438.488589 286.919439 
z
" clip-path="url(#p976ce89111)" style="fill: #ee82ee"/>
   </g>
   <g id="patch_25">
    <path d="M 438.488589 338.541702 
L 544.093299 338.541702 
L 544.093299 315.598474 
L 438.488589 315.598474 
z
" clip-path="url(#p976ce89111)" style="fill: #6495ed"/>
   </g>
   <g id="patch_26">
    <path d="M 438.488589 367.220737 
L 618.091835 367.220737 
L 618.091835 344.277509 
L 438.488589 344.277509 
z
" clip-path="url(#p976ce89111)" style="fill: #ffa500"/>
   </g>
   <g id="patch_27">
    <path d="M 438.488589 395.899773 
L 618.097668 395.899773 
L 618.097668 372.956545 
L 438.488589 372.956545 
z
" clip-path="url(#p976ce89111)" style="fill: #ff6347"/>
   </g>
   <g id="matplotlib.axis_3">
    <g id="xtick_7">
     <g id="line2d_7">
      <g>
       <use xlink:href="#mfa7db6bbba" x="438.488589" y="409.9525" style="stroke: #000000; stroke-width: 0.8"/>
      </g>
     </g>
     <g id="text_19">
      <!-- 0 -->
      <g transform="translate(435.307339 424.550937) scale(0.1 -0.1)">
       <use xlink:href="#DejaVuSans-30"/>
      </g>
     </g>
    </g>
    <g id="xtick_8">
     <g id="line2d_8">
      <g>
       <use xlink:href="#mfa7db6bbba" x="503.740532" y="409.9525" style="stroke: #000000; stroke-width: 0.8"/>
      </g>
     </g>
     <g id="text_20">
      <!-- 20 -->
      <g transform="translate(497.378032 424.550937) scale(0.1 -0.1)">
       <use xlink:href="#DejaVuSans-32"/>
       <use xlink:href="#DejaVuSans-30" transform="translate(63.623047 0)"/>
      </g>
     </g>
    </g>
    <g id="xtick_9">
     <g id="line2d_9">
      <g>
       <use xlink:href="#mfa7db6bbba" x="568.992475" y="409.9525" style="stroke: #000000; stroke-width: 0.8"/>
      </g>
     </g>
     <g id="text_21">
      <!-- 40 -->
      <g transform="translate(562.629975 424.550937) scale(0.1 -0.1)">
       <use xlink:href="#DejaVuSans-34"/>
       <use xlink:href="#DejaVuSans-30" transform="translate(63.623047 0)"/>
      </g>
     </g>
    </g>
    <g id="xtick_10">
     <g id="line2d_10">
      <g>
       <use xlink:href="#mfa7db6bbba" x="634.244418" y="409.9525" style="stroke: #000000; stroke-width: 0.8"/>
      </g>
     </g>
     <g id="text_22">
      <!-- 60 -->
      <g transform="translate(627.881918 424.550937) scale(0.1 -0.1)">
       <use xlink:href="#DejaVuSans-36"/>
       <use xlink:href="#DejaVuSans-30" transform="translate(63.623047 0)"/>
      </g>
     </g>
    </g>
    <g id="xtick_11">
     <g id="line2d_11">
      <g>
       <use xlink:href="#mfa7db6bbba" x="699.496362" y="409.9525" style="stroke: #000000; stroke-width: 0.8"/>
      </g>
     </g>
     <g id="text_23">
      <!-- 80 -->
      <g transform="translate(693.133862 424.550937) scale(0.1 -0.1)">
       <use xlink:href="#DejaVuSans-38"/>
       <use xlink:href="#DejaVuSans-30" transform="translate(63.623047 0)"/>
      </g>
     </g>
    </g>
    <g id="xtick_12">
     <g id="line2d_12">
      <g>
       <use xlink:href="#mfa7db6bbba" x="764.748305" y="409.9525" style="stroke: #000000; stroke-width: 0.8"/>
      </g>
     </g>
     <g id="text_24">
      <!-- 100 -->
      <g transform="translate(755.204555 424.550937) scale(0.1 -0.1)">
       <use xlink:href="#DejaVuSans-31"/>
       <use xlink:href="#DejaVuSans-30" transform="translate(63.623047 0)"/>
       <use xlink:href="#DejaVuSans-30" transform="translate(127.246094 0)"/>
      </g>
     </g>
    </g>
    <g id="xtick_13">
     <g id="line2d_13">
      <g>
       <use xlink:href="#mfa7db6bbba" x="830.000248" y="409.9525" style="stroke: #000000; stroke-width: 0.8"/>
      </g>
     </g>
     <g id="text_25">
      <!-- 120 -->
      <g transform="translate(820.456498 424.550937) scale(0.1 -0.1)">
       <use xlink:href="#DejaVuSans-31"/>
       <use xlink:href="#DejaVuSans-32" transform="translate(63.623047 0)"/>
       <use xlink:href="#DejaVuSans-30" transform="translate(127.246094 0)"/>
      </g>
     </g>
    </g>
    <g id="text_26">
     <!-- gigabytes -->
     <g transform="translate(619.483357 438.229062) scale(0.1 -0.1)">
      <defs>
       <path id="DejaVuSans-61" d="M 2194 1759 
Q 1497 1759 1228 1600 
Q 959 1441 959 1056 
Q 959 750 1161 570 
Q 1363 391 1709 391 
Q 2188 391 2477 730 
Q 2766 1069 2766 1631 
L 2766 1759 
L 2194 1759 
z
M 3341 1997 
L 3341 0 
L 2766 0 
L 2766 531 
Q 2569 213 2275 61 
Q 1981 -91 1556 -91 
Q 1019 -91 701 211 
Q 384 513 384 1019 
Q 384 1609 779 1909 
Q 1175 2209 1959 2209 
L 2766 2209 
L 2766 2266 
Q 2766 2663 2505 2880 
Q 2244 3097 1772 3097 
Q 1472 3097 1187 3025 
Q 903 2953 641 2809 
L 641 3341 
Q 956 3463 1253 3523 
Q 1550 3584 1831 3584 
Q 2591 3584 2966 3190 
Q 3341 2797 3341 1997 
z
" transform="scale(0.015625)"/>
       <path id="DejaVuSans-62" d="M 3116 1747 
Q 3116 2381 2855 2742 
Q 2594 3103 2138 3103 
Q 1681 3103 1420 2742 
Q 1159 2381 1159 1747 
Q 1159 1113 1420 752 
Q 1681 391 2138 391 
Q 2594 391 2855 752 
Q 3116 1113 3116 1747 
z
M 1159 2969 
Q 1341 3281 1617 3432 
Q 1894 3584 2278 3584 
Q 2916 3584 3314 3078 
Q 3713 2572 3713 1747 
Q 3713 922 3314 415 
Q 2916 -91 2278 -91 
Q 1894 -91 1617 61 
Q 1341 213 1159 525 
L 1159 0 
L 581 0 
L 581 4863 
L 1159 4863 
L 1159 2969 
z
" transform="scale(0.015625)"/>
       <path id="DejaVuSans-79" d="M 2059 -325 
Q 1816 -950 1584 -1140 
Q 1353 -1331 966 -1331 
L 506 -1331 
L 506 -850 
L 844 -850 
Q 1081 -850 1212 -737 
Q 1344 -625 1503 -206 
L 1606 56 
L 191 3500 
L 800 3500 
L 1894 763 
L 2988 3500 
L 3597 3500 
L 2059 -325 
z
" transform="scale(0.015625)"/>
      </defs>
      <use xlink:href="#DejaVuSans-67"/>
      <use xlink:href="#DejaVuSans-69" transform="translate(63.476562 0)"/>
      <use xlink:href="#DejaVuSans-67" transform="translate(91.259766 0)"/>
      <use xlink:href="#DejaVuSans-61" transform="translate(154.736328 0)"/>
      <use xlink:href="#DejaVuSans-62" transform="translate(216.015625 0)"/>
      <use xlink:href="#DejaVuSans-79" transform="translate(279.492188 0)"/>
      <use xlink:href="#DejaVuSans-74" transform="translate(338.671875 0)"/>
      <use xlink:href="#DejaVuSans-65" transform="translate(377.880859 0)"/>
      <use xlink:href="#DejaVuSans-73" transform="translate(439.404297 0)"/>
     </g>
    </g>
   </g>
   <g id="matplotlib.axis_4"/>
   <g id="patch_28">
    <path d="M 438.488589 409.9525 
L 438.488589 100.7925 
" style="fill: none; stroke: #000000; stroke-width: 0.8; stroke-linejoin: miter; stroke-linecap: square"/>
   </g>
   <g id="patch_29">
    <path d="M 849.63125 409.9525 
L 849.63125 100.7925 
" style="fill: none; stroke: #000000; stroke-width: 0.8; stroke-linejoin: miter; stroke-linecap: square"/>
   </g>
   <g id="patch_30">
    <path d="M 438.488589 409.9525 
L 849.63125 409.9525 
" style="fill: none; stroke: #000000; stroke-width: 0.8; stroke-linejoin: miter; stroke-linecap: square"/>
   </g>
   <g id="patch_31">
    <path d="M 438.488589 100.7925 
L 849.63125 100.7925 
" style="fill: none; stroke: #000000; stroke-width: 0.8; stroke-linejoin: miter; stroke-linecap: square"/>
   </g>
   <g id="text_27">
    <!-- 83.0 -->
    <g transform="translate(711.162236 129.076216) scale(0.1 -0.1)">
     <use xlink:href="#DejaVuSans-38"/>
     <use xlink:href="#DejaVuSans-33" transform="translate(63.623047 0)"/>
     <use xlink:href="#DejaVuSans-2e" transform="translate(127.246094 0)"/>
     <use xlink:href="#DejaVuSans-30" transform="translate(159.033203 0)"/>
    </g>
   </g>
   <g id="text_28">
    <!-- 83.0 -->
    <g transform="translate(711.165812 157.755252) scale(0.1 -0.1)">
     <use xlink:href="#DejaVuSans-38"/>
     <use xlink:href="#DejaVuSans-33" transform="translate(63.623047 0)"/>
     <use xlink:href="#DejaVuSans-2e" transform="translate(127.246094 0)"/>
     <use xlink:href="#DejaVuSans-30" transform="translate(159.033203 0)"/>
    </g>
   </g>
   <g id="text_29">
    <!-- 109.6 -->
    <g transform="translate(798.003946 186.434287) scale(0.1 -0.1)">
     <use xlink:href="#DejaVuSans-31"/>
     <use xlink:href="#DejaVuSans-30" transform="translate(63.623047 0)"/>
     <use xlink:href="#DejaVuSans-39" transform="translate(127.246094 0)"/>
     <use xlink:href="#DejaVuSans-2e" transform="translate(190.869141 0)"/>
     <use xlink:href="#DejaVuSans-36" transform="translate(222.65625 0)"/>
    </g>
   </g>
   <g id="text_30">
    <!-- 32.4 -->
    <g transform="translate(546.085247 215.113322) scale(0.1 -0.1)">
     <use xlink:href="#DejaVuSans-33"/>
     <use xlink:href="#DejaVuSans-32" transform="translate(63.623047 0)"/>
     <use xlink:href="#DejaVuSans-2e" transform="translate(127.246094 0)"/>
     <use xlink:href="#DejaVuSans-34" transform="translate(159.033203 0)"/>
    </g>
   </g>
   <g id="text_31">
    <!-- 16.3 -->
    <g transform="translate(493.547136 243.792357) scale(0.1 -0.1)">
     <use xlink:href="#DejaVuSans-31"/>
     <use xlink:href="#DejaVuSans-36" transform="translate(63.623047 0)"/>
     <use xlink:href="#DejaVuSans-2e" transform="translate(127.246094 0)"/>
     <use xlink:href="#DejaVuSans-33" transform="translate(159.033203 0)"/>
    </g>
   </g>
   <g id="text_32">
    <!-- 29.1 -->
    <g transform="translate(535.58373 272.471393) scale(0.1 -0.1)">
     <use xlink:href="#DejaVuSans-32"/>
     <use xlink:href="#DejaVuSans-39" transform="translate(63.623047 0)"/>
     <use xlink:href="#DejaVuSans-2e" transform="translate(127.246094 0)"/>
     <use xlink:href="#DejaVuSans-31" transform="translate(159.033203 0)"/>
    </g>
   </g>
   <g id="text_33">
    <!-- 32.4 -->
    <g transform="translate(546.093169 301.150428) scale(0.1 -0.1)">
     <use xlink:href="#DejaVuSans-33"/>
     <use xlink:href="#DejaVuSans-32" transform="translate(63.623047 0)"/>
     <use xlink:href="#DejaVuSans-2e" transform="translate(127.246094 0)"/>
     <use xlink:href="#DejaVuSans-34" transform="translate(159.033203 0)"/>
    </g>
   </g>
   <g id="text_34">
    <!-- 32.4 -->
    <g transform="translate(546.093299 329.829463) scale(0.1 -0.1)">
     <use xlink:href="#DejaVuSans-33"/>
     <use xlink:href="#DejaVuSans-32" transform="translate(63.623047 0)"/>
     <use xlink:href="#DejaVuSans-2e" transform="translate(127.246094 0)"/>
     <use xlink:href="#DejaVuSans-34" transform="translate(159.033203 0)"/>
    </g>
   </g>
   <g id="text_35">
    <!-- 55.0 -->
    <g transform="translate(620.091835 358.508498) scale(0.1 -0.1)">
     <use xlink:href="#DejaVuSans-35"/>
     <use xlink:href="#DejaVuSans-35" transform="translate(63.623047 0)"/>
     <use xlink:href="#DejaVuSans-2e" transform="translate(127.246094 0)"/>
     <use xlink:href="#DejaVuSans-30" transform="translate(159.033203 0)"/>
    </g>
   </g>
   <g id="text_36">
    <!-- 55.1 -->
    <g transform="translate(620.097668 387.187534) scale(0.1 -0.1)">
     <use xlink:href="#DejaVuSans-35"/>
     <use xlink:href="#DejaVuSans-35" transform="translate(63.623047 0)"/>
     <use xlink:href="#DejaVuSans-2e" transform="translate(127.246094 0)"/>
     <use xlink:href="#DejaVuSans-31" transform="translate(159.033203 0)"/>
    </g>
   </g>
   <g id="text_37">
    <!-- peak memory usage in gigabytes -->
    <g transform="translate(543.643357 94.7925) scale(0.12 -0.12)">
     <defs>
      <path id="DejaVuSans-70" d="M 1159 525 
L 1159 -1331 
L 581 -1331 
L 581 3500 
L 1159 3500 
L 1159 2969 
Q 1341 3281 1617 3432 
Q 1894 3584 2278 3584 
Q 2916 3584 3314 3078 
Q 3713 2572 3713 1747 
Q 3713 922 3314 415 
Q 2916 -91 2278 -91 
Q 1894 -91 1617 61 
Q 1341 213 1159 525 
z
M 3116 1747 
Q 3116 2381 2855 2742 
Q 2594 3103 2138 3103 
Q 1681 3103 1420 2742 
Q 1159 2381 1159 1747 
Q 1159 1113 1420 752 
Q 1681 391 2138 391 
Q 2594 391 2855 752 
Q 3116 1113 3116 1747 
z
" transform="scale(0.015625)"/>
      <path id="DejaVuSans-6b" d="M 581 4863 
L 1159 4863 
L 1159 1991 
L 2875 3500 
L 3609 3500 
L 1753 1863 
L 3688 0 
L 2938 0 
L 1159 1709 
L 1159 0 
L 581 0 
L 581 4863 
z
" transform="scale(0.015625)"/>
     </defs>
     <use xlink:href="#DejaVuSans-70"/>
     <use xlink:href="#DejaVuSans-65" transform="translate(63.476562 0)"/>
     <use xlink:href="#DejaVuSans-61" transform="translate(125 0)"/>
     <use xlink:href="#DejaVuSans-6b" transform="translate(186.279297 0)"/>
     <use xlink:href="#DejaVuSans-20" transform="translate(244.189453 0)"/>
     <use xlink:href="#DejaVuSans-6d" transform="translate(275.976562 0)"/>
     <use xlink:href="#DejaVuSans-65" transform="translate(373.388672 0)"/>
     <use xlink:href="#DejaVuSans-6d" transform="translate(434.912109 0)"/>
     <use xlink:href="#DejaVuSans-6f" transform="translate(532.324219 0)"/>
     <use xlink:href="#DejaVuSans-72" transform="translate(593.505859 0)"/>
     <use xlink:href="#DejaVuSans-79" transform="translate(634.619141 0)"/>
     <use xlink:href="#DejaVuSans-20" transform="translate(693.798828 0)"/>
     <use xlink:href="#DejaVuSans-75" transform="translate(725.585938 0)"/>
     <use xlink:href="#DejaVuSans-73" transform="translate(788.964844 0)"/>
     <use xlink:href="#DejaVuSans-61" transform="translate(841.064453 0)"/>
     <use xlink:href="#DejaVuSans-67" transform="translate(902.34375 0)"/>
     <use xlink:href="#DejaVuSans-65" transform="translate(965.820312 0)"/>
     <use xlink:href="#DejaVuSans-20" transform="translate(1027.34375 0)"/>
     <use xlink:href="#DejaVuSans-69" transform="translate(1059.130859 0)"/>
     <use xlink:href="#DejaVuSans-6e" transform="translate(1086.914062 0)"/>
     <use xlink:href="#DejaVuSans-20" transform="translate(1150.292969 0)"/>
     <use xlink:href="#DejaVuSans-67" transform="translate(1182.080078 0)"/>
     <use xlink:href="#DejaVuSans-69" transform="translate(1245.556641 0)"/>
     <use xlink:href="#DejaVuSans-67" transform="translate(1273.339844 0)"/>
     <use xlink:href="#DejaVuSans-61" transform="translate(1336.816406 0)"/>
     <use xlink:href="#DejaVuSans-62" transform="translate(1398.095703 0)"/>
     <use xlink:href="#DejaVuSans-79" transform="translate(1461.572266 0)"/>
     <use xlink:href="#DejaVuSans-74" transform="translate(1520.751953 0)"/>
     <use xlink:href="#DejaVuSans-65" transform="translate(1559.960938 0)"/>
     <use xlink:href="#DejaVuSans-73" transform="translate(1621.484375 0)"/>
    </g>
   </g>
  </g>
  <g id="legend_1">
   <g id="patch_32">
    <path d="M 138.742969 68.9125 
L 718.119531 68.9125 
Q 720.119531 68.9125 720.119531 66.9125 
L 720.119531 9.2 
Q 720.119531 7.2 718.119531 7.2 
L 138.742969 7.2 
Q 136.742969 7.2 136.742969 9.2 
L 136.742969 66.9125 
Q 136.742969 68.9125 138.742969 68.9125 
z
" style="fill: #ffffff; opacity: 0.8; stroke: #cccccc; stroke-linejoin: miter"/>
   </g>
   <g id="patch_33">
    <path d="M 140.742969 18.798437 
L 160.742969 18.798437 
L 160.742969 11.798437 
L 140.742969 11.798437 
z
" style="fill: #228b22"/>
   </g>
   <g id="text_38">
    <!-- bio large -->
    <g transform="translate(168.742969 18.798437) scale(0.1 -0.1)">
     <defs>
      <path id="DejaVuSans-6c" d="M 603 4863 
L 1178 4863 
L 1178 0 
L 603 0 
L 603 4863 
z
" transform="scale(0.015625)"/>
     </defs>
     <use xlink:href="#DejaVuSans-62"/>
     <use xlink:href="#DejaVuSans-69" transform="translate(63.476562 0)"/>
     <use xlink:href="#DejaVuSans-6f" transform="translate(91.259766 0)"/>
     <use xlink:href="#DejaVuSans-20" transform="translate(152.441406 0)"/>
     <use xlink:href="#DejaVuSans-6c" transform="translate(184.228516 0)"/>
     <use xlink:href="#DejaVuSans-61" transform="translate(212.011719 0)"/>
     <use xlink:href="#DejaVuSans-72" transform="translate(273.291016 0)"/>
     <use xlink:href="#DejaVuSans-67" transform="translate(312.654297 0)"/>
     <use xlink:href="#DejaVuSans-65" transform="translate(376.130859 0)"/>
    </g>
   </g>
   <g id="patch_34">
    <path d="M 140.742969 33.476562 
L 160.742969 33.476562 
L 160.742969 26.476562 
L 140.742969 26.476562 
z
" style="fill: #32cd32"/>
   </g>
   <g id="text_39">
    <!-- bio small -->
    <g transform="translate(168.742969 33.476562) scale(0.1 -0.1)">
     <use xlink:href="#DejaVuSans-62"/>
     <use xlink:href="#DejaVuSans-69" transform="translate(63.476562 0)"/>
     <use xlink:href="#DejaVuSans-6f" transform="translate(91.259766 0)"/>
     <use xlink:href="#DejaVuSans-20" transform="translate(152.441406 0)"/>
     <use xlink:href="#DejaVuSans-73" transform="translate(184.228516 0)"/>
     <use xlink:href="#DejaVuSans-6d" transform="translate(236.328125 0)"/>
     <use xlink:href="#DejaVuSans-61" transform="translate(333.740234 0)"/>
     <use xlink:href="#DejaVuSans-6c" transform="translate(395.019531 0)"/>
     <use xlink:href="#DejaVuSans-6c" transform="translate(422.802734 0)"/>
    </g>
   </g>
   <g id="patch_35">
    <path d="M 140.742969 48.154687 
L 160.742969 48.154687 
L 160.742969 41.154687 
L 140.742969 41.154687 
z
" style="fill: #808000"/>
   </g>
   <g id="text_40">
    <!-- fmindex multi text -->
    <g transform="translate(168.742969 48.154687) scale(0.1 -0.1)">
     <defs>
      <path id="DejaVuSans-66" d="M 2375 4863 
L 2375 4384 
L 1825 4384 
Q 1516 4384 1395 4259 
Q 1275 4134 1275 3809 
L 1275 3500 
L 2222 3500 
L 2222 3053 
L 1275 3053 
L 1275 0 
L 697 0 
L 697 3053 
L 147 3053 
L 147 3500 
L 697 3500 
L 697 3744 
Q 697 4328 969 4595 
Q 1241 4863 1831 4863 
L 2375 4863 
z
" transform="scale(0.015625)"/>
      <path id="DejaVuSans-78" d="M 3513 3500 
L 2247 1797 
L 3578 0 
L 2900 0 
L 1881 1375 
L 863 0 
L 184 0 
L 1544 1831 
L 300 3500 
L 978 3500 
L 1906 2253 
L 2834 3500 
L 3513 3500 
z
" transform="scale(0.015625)"/>
     </defs>
     <use xlink:href="#DejaVuSans-66"/>
     <use xlink:href="#DejaVuSans-6d" transform="translate(35.205078 0)"/>
     <use xlink:href="#DejaVuSans-69" transform="translate(132.617188 0)"/>
     <use xlink:href="#DejaVuSans-6e" transform="translate(160.400391 0)"/>
     <use xlink:href="#DejaVuSans-64" transform="translate(223.779297 0)"/>
     <use xlink:href="#DejaVuSans-65" transform="translate(287.255859 0)"/>
     <use xlink:href="#DejaVuSans-78" transform="translate(347.029297 0)"/>
     <use xlink:href="#DejaVuSans-20" transform="translate(406.208984 0)"/>
     <use xlink:href="#DejaVuSans-6d" transform="translate(437.996094 0)"/>
     <use xlink:href="#DejaVuSans-75" transform="translate(535.408203 0)"/>
     <use xlink:href="#DejaVuSans-6c" transform="translate(598.787109 0)"/>
     <use xlink:href="#DejaVuSans-74" transform="translate(626.570312 0)"/>
     <use xlink:href="#DejaVuSans-69" transform="translate(665.779297 0)"/>
     <use xlink:href="#DejaVuSans-20" transform="translate(693.5625 0)"/>
     <use xlink:href="#DejaVuSans-74" transform="translate(725.349609 0)"/>
     <use xlink:href="#DejaVuSans-65" transform="translate(764.558594 0)"/>
     <use xlink:href="#DejaVuSans-78" transform="translate(824.332031 0)"/>
     <use xlink:href="#DejaVuSans-74" transform="translate(883.511719 0)"/>
    </g>
   </g>
   <g id="patch_36">
    <path d="M 140.742969 62.832812 
L 160.742969 62.832812 
L 160.742969 55.832812 
L 140.742969 55.832812 
z
" style="fill: #8a2be2"/>
   </g>
   <g id="text_41">
    <!-- genedex cond64 -->
    <g transform="translate(168.742969 62.832812) scale(0.1 -0.1)">
     <use xlink:href="#DejaVuSans-67"/>
     <use xlink:href="#DejaVuSans-65" transform="translate(63.476562 0)"/>
     <use xlink:href="#DejaVuSans-6e" transform="translate(125 0)"/>
     <use xlink:href="#DejaVuSans-65" transform="translate(188.378906 0)"/>
     <use xlink:href="#DejaVuSans-64" transform="translate(249.902344 0)"/>
     <use xlink:href="#DejaVuSans-65" transform="translate(313.378906 0)"/>
     <use xlink:href="#DejaVuSans-78" transform="translate(373.152344 0)"/>
     <use xlink:href="#DejaVuSans-20" transform="translate(432.332031 0)"/>
     <use xlink:href="#DejaVuSans-63" transform="translate(464.119141 0)"/>
     <use xlink:href="#DejaVuSans-6f" transform="translate(519.099609 0)"/>
     <use xlink:href="#DejaVuSans-6e" transform="translate(580.28125 0)"/>
     <use xlink:href="#DejaVuSans-64" transform="translate(643.660156 0)"/>
     <use xlink:href="#DejaVuSans-36" transform="translate(707.136719 0)"/>
     <use xlink:href="#DejaVuSans-34" transform="translate(770.759766 0)"/>
    </g>
   </g>
   <g id="patch_37">
    <path d="M 281.013281 18.798437 
L 301.013281 18.798437 
L 301.013281 11.798437 
L 281.013281 11.798437 
z
" style="fill: url(#h2649375973)"/>
   </g>
   <g id="text_42">
    <!-- genedex cond64, 8 threads, low memory -->
    <g transform="translate(309.013281 18.798437) scale(0.1 -0.1)">
     <defs>
      <path id="DejaVuSans-2c" d="M 750 794 
L 1409 794 
L 1409 256 
L 897 -744 
L 494 -744 
L 750 256 
L 750 794 
z
" transform="scale(0.015625)"/>
      <path id="DejaVuSans-68" d="M 3513 2113 
L 3513 0 
L 2938 0 
L 2938 2094 
Q 2938 2591 2744 2837 
Q 2550 3084 2163 3084 
Q 1697 3084 1428 2787 
Q 1159 2491 1159 1978 
L 1159 0 
L 581 0 
L 581 4863 
L 1159 4863 
L 1159 2956 
Q 1366 3272 1645 3428 
Q 1925 3584 2291 3584 
Q 2894 3584 3203 3211 
Q 3513 2838 3513 2113 
z
" transform="scale(0.015625)"/>
      <path id="DejaVuSans-77" d="M 269 3500 
L 844 3500 
L 1563 769 
L 2278 3500 
L 2956 3500 
L 3675 769 
L 4391 3500 
L 4966 3500 
L 4050 0 
L 3372 0 
L 2619 2869 
L 1863 0 
L 1184 0 
L 269 3500 
z
" transform="scale(0.015625)"/>
     </defs>
     <use xlink:href="#DejaVuSans-67"/>
     <use xlink:href="#DejaVuSans-65" transform="translate(63.476562 0)"/>
     <use xlink:href="#DejaVuSans-6e" transform="translate(125 0)"/>
     <use xlink:href="#DejaVuSans-65" transform="translate(188.378906 0)"/>
     <use xlink:href="#DejaVuSans-64" transform="translate(249.902344 0)"/>
     <use xlink:href="#DejaVuSans-65" transform="translate(313.378906 0)"/>
     <use xlink:href="#DejaVuSans-78" transform="translate(373.152344 0)"/>
     <use xlink:href="#DejaVuSans-20" transform="translate(432.332031 0)"/>
     <use xlink:href="#DejaVuSans-63" transform="translate(464.119141 0)"/>
     <use xlink:href="#DejaVuSans-6f" transform="translate(519.099609 0)"/>
     <use xlink:href="#DejaVuSans-6e" transform="translate(580.28125 0)"/>
     <use xlink:href="#DejaVuSans-64" transform="translate(643.660156 0)"/>
     <use xlink:href="#DejaVuSans-36" transform="translate(707.136719 0)"/>
     <use xlink:href="#DejaVuSans-34" transform="translate(770.759766 0)"/>
     <use xlink:href="#DejaVuSans-2c" transform="translate(834.382812 0)"/>
     <use xlink:href="#DejaVuSans-20" transform="translate(866.169922 0)"/>
     <use xlink:href="#DejaVuSans-38" transform="translate(897.957031 0)"/>
     <use xlink:href="#DejaVuSans-20" transform="translate(961.580078 0)"/>
     <use xlink:href="#DejaVuSans-74" transform="translate(993.367188 0)"/>
     <use xlink:href="#DejaVuSans-68" transform="translate(1032.576172 0)"/>
     <use xlink:href="#DejaVuSans-72" transform="translate(1095.955078 0)"/>
     <use xlink:href="#DejaVuSans-65" transform="translate(1134.818359 0)"/>
     <use xlink:href="#DejaVuSans-61" transform="translate(1196.341797 0)"/>
     <use xlink:href="#DejaVuSans-64" transform="translate(1257.621094 0)"/>
     <use xlink:href="#DejaVuSans-73" transform="translate(1321.097656 0)"/>
     <use xlink:href="#DejaVuSans-2c" transform="translate(1373.197266 0)"/>
     <use xlink:href="#DejaVuSans-20" transform="translate(1404.984375 0)"/>
     <use xlink:href="#DejaVuSans-6c" transform="translate(1436.771484 0)"/>
     <use xlink:href="#DejaVuSans-6f" transform="translate(1464.554688 0)"/>
     <use xlink:href="#DejaVuSans-77" transform="translate(1525.736328 0)"/>
     <use xlink:href="#DejaVuSans-20" transform="translate(1607.523438 0)"/>
     <use xlink:href="#DejaVuSans-6d" transform="translate(1639.310547 0)"/>
     <use xlink:href="#DejaVuSans-65" transform="translate(1736.722656 0)"/>
     <use xlink:href="#DejaVuSans-6d" transform="translate(1798.246094 0)"/>
     <use xlink:href="#DejaVuSans-6f" transform="translate(1895.658203 0)"/>
     <use xlink:href="#DejaVuSans-72" transform="translate(1956.839844 0)"/>
     <use xlink:href="#DejaVuSans-79" transform="translate(1997.953125 0)"/>
    </g>
   </g>
   <g id="patch_38">
    <path d="M 281.013281 33.476562 
L 301.013281 33.476562 
L 301.013281 26.476562 
L 281.013281 26.476562 
z
" style="fill: url(#hd6704d8eac)"/>
   </g>
   <g id="text_43">
    <!-- genedex cond64, 8 threads, medium memory -->
    <g transform="translate(309.013281 33.476562) scale(0.1 -0.1)">
     <use xlink:href="#DejaVuSans-67"/>
     <use xlink:href="#DejaVuSans-65" transform="translate(63.476562 0)"/>
     <use xlink:href="#DejaVuSans-6e" transform="translate(125 0)"/>
     <use xlink:href="#DejaVuSans-65" transform="translate(188.378906 0)"/>
     <use xlink:href="#DejaVuSans-64" transform="translate(249.902344 0)"/>
     <use xlink:href="#DejaVuSans-65" transform="translate(313.378906 0)"/>
     <use xlink:href="#DejaVuSans-78" transform="translate(373.152344 0)"/>
     <use xlink:href="#DejaVuSans-20" transform="translate(432.332031 0)"/>
     <use xlink:href="#DejaVuSans-63" transform="translate(464.119141 0)"/>
     <use xlink:href="#DejaVuSans-6f" transform="translate(519.099609 0)"/>
     <use xlink:href="#DejaVuSans-6e" transform="translate(580.28125 0)"/>
     <use xlink:href="#DejaVuSans-64" transform="translate(643.660156 0)"/>
     <use xlink:href="#DejaVuSans-36" transform="translate(707.136719 0)"/>
     <use xlink:href="#DejaVuSans-34" transform="translate(770.759766 0)"/>
     <use xlink:href="#DejaVuSans-2c" transform="translate(834.382812 0)"/>
     <use xlink:href="#DejaVuSans-20" transform="translate(866.169922 0)"/>
     <use xlink:href="#DejaVuSans-38" transform="translate(897.957031 0)"/>
     <use xlink:href="#DejaVuSans-20" transform="translate(961.580078 0)"/>
     <use xlink:href="#DejaVuSans-74" transform="translate(993.367188 0)"/>
     <use xlink:href="#DejaVuSans-68" transform="translate(1032.576172 0)"/>
     <use xlink:href="#DejaVuSans-72" transform="translate(1095.955078 0)"/>
     <use xlink:href="#DejaVuSans-65" transform="translate(1134.818359 0)"/>
     <use xlink:href="#DejaVuSans-61" transform="translate(1196.341797 0)"/>
     <use xlink:href="#DejaVuSans-64" transform="translate(1257.621094 0)"/>
     <use xlink:href="#DejaVuSans-73" transform="translate(1321.097656 0)"/>
     <use xlink:href="#DejaVuSans-2c" transform="translate(1373.197266 0)"/>
     <use xlink:href="#DejaVuSans-20" transform="translate(1404.984375 0)"/>
     <use xlink:href="#DejaVuSans-6d" transform="translate(1436.771484 0)"/>
     <use xlink:href="#DejaVuSans-65" transform="translate(1534.183594 0)"/>
     <use xlink:href="#DejaVuSans-64" transform="translate(1595.707031 0)"/>
     <use xlink:href="#DejaVuSans-69" transform="translate(1659.183594 0)"/>
     <use xlink:href="#DejaVuSans-75" transform="translate(1686.966797 0)"/>
     <use xlink:href="#DejaVuSans-6d" transform="translate(1750.345703 0)"/>
     <use xlink:href="#DejaVuSans-20" transform="translate(1847.757812 0)"/>
     <use xlink:href="#DejaVuSans-6d" transform="translate(1879.544922 0)"/>
     <use xlink:href="#DejaVuSans-65" transform="translate(1976.957031 0)"/>
     <use xlink:href="#DejaVuSans-6d" transform="translate(2038.480469 0)"/>
     <use xlink:href="#DejaVuSans-6f" transform="translate(2135.892578 0)"/>
     <use xlink:href="#DejaVuSans-72" transform="translate(2197.074219 0)"/>
     <use xlink:href="#DejaVuSans-79" transform="translate(2238.1875 0)"/>
    </g>
   </g>
   <g id="patch_39">
    <path d="M 281.013281 48.154687 
L 301.013281 48.154687 
L 301.013281 41.154687 
L 281.013281 41.154687 
z
" style="fill: #ee82ee"/>
   </g>
   <g id="text_44">
    <!-- genedex cond64, 8 threads -->
    <g transform="translate(309.013281 48.154687) scale(0.1 -0.1)">
     <use xlink:href="#DejaVuSans-67"/>
     <use xlink:href="#DejaVuSans-65" transform="translate(63.476562 0)"/>
     <use xlink:href="#DejaVuSans-6e" transform="translate(125 0)"/>
     <use xlink:href="#DejaVuSans-65" transform="translate(188.378906 0)"/>
     <use xlink:href="#DejaVuSans-64" transform="translate(249.902344 0)"/>
     <use xlink:href="#DejaVuSans-65" transform="translate(313.378906 0)"/>
     <use xlink:href="#DejaVuSans-78" transform="translate(373.152344 0)"/>
     <use xlink:href="#DejaVuSans-20" transform="translate(432.332031 0)"/>
     <use xlink:href="#DejaVuSans-63" transform="translate(464.119141 0)"/>
     <use xlink:href="#DejaVuSans-6f" transform="translate(519.099609 0)"/>
     <use xlink:href="#DejaVuSans-6e" transform="translate(580.28125 0)"/>
     <use xlink:href="#DejaVuSans-64" transform="translate(643.660156 0)"/>
     <use xlink:href="#DejaVuSans-36" transform="translate(707.136719 0)"/>
     <use xlink:href="#DejaVuSans-34" transform="translate(770.759766 0)"/>
     <use xlink:href="#DejaVuSans-2c" transform="translate(834.382812 0)"/>
     <use xlink:href="#DejaVuSans-20" transform="translate(866.169922 0)"/>
     <use xlink:href="#DejaVuSans-38" transform="translate(897.957031 0)"/>
     <use xlink:href="#DejaVuSans-20" transform="translate(961.580078 0)"/>
     <use xlink:href="#DejaVuSans-74" transform="translate(993.367188 0)"/>
     <use xlink:href="#DejaVuSans-68" transform="translate(1032.576172 0)"/>
     <use xlink:href="#DejaVuSans-72" transform="translate(1095.955078 0)"/>
     <use xlink:href="#DejaVuSans-65" transform="translate(1134.818359 0)"/>
     <use xlink:href="#DejaVuSans-61" transform="translate(1196.341797 0)"/>
     <use xlink:href="#DejaVuSans-64" transform="translate(1257.621094 0)"/>
     <use xlink:href="#DejaVuSans-73" transform="translate(1321.097656 0)"/>
    </g>
   </g>
   <g id="patch_40">
    <path d="M 558.752344 18.798437 
L 578.752344 18.798437 
L 578.752344 11.798437 
L 558.752344 11.798437 
z
" style="fill: #6495ed"/>
   </g>
   <g id="text_45">
    <!-- genedex flat64, 8 threads -->
    <g transform="translate(586.752344 18.798437) scale(0.1 -0.1)">
     <use xlink:href="#DejaVuSans-67"/>
     <use xlink:href="#DejaVuSans-65" transform="translate(63.476562 0)"/>
     <use xlink:href="#DejaVuSans-6e" transform="translate(125 0)"/>
     <use xlink:href="#DejaVuSans-65" transform="translate(188.378906 0)"/>
     <use xlink:href="#DejaVuSans-64" transform="translate(249.902344 0)"/>
     <use xlink:href="#DejaVuSans-65" transform="translate(313.378906 0)"/>
     <use xlink:href="#DejaVuSans-78" transform="translate(373.152344 0)"/>
     <use xlink:href="#DejaVuSans-20" transform="translate(432.332031 0)"/>
     <use xlink:href="#DejaVuSans-66" transform="translate(464.119141 0)"/>
     <use xlink:href="#DejaVuSans-6c" transform="translate(499.324219 0)"/>
     <use xlink:href="#DejaVuSans-61" transform="translate(527.107422 0)"/>
     <use xlink:href="#DejaVuSans-74" transform="translate(588.386719 0)"/>
     <use xlink:href="#DejaVuSans-36" transform="translate(627.595703 0)"/>
     <use xlink:href="#DejaVuSans-34" transform="translate(691.21875 0)"/>
     <use xlink:href="#DejaVuSans-2c" transform="translate(754.841797 0)"/>
     <use xlink:href="#DejaVuSans-20" transform="translate(786.628906 0)"/>
     <use xlink:href="#DejaVuSans-38" transform="translate(818.416016 0)"/>
     <use xlink:href="#DejaVuSans-20" transform="translate(882.039062 0)"/>
     <use xlink:href="#DejaVuSans-74" transform="translate(913.826172 0)"/>
     <use xlink:href="#DejaVuSans-68" transform="translate(953.035156 0)"/>
     <use xlink:href="#DejaVuSans-72" transform="translate(1016.414062 0)"/>
     <use xlink:href="#DejaVuSans-65" transform="translate(1055.277344 0)"/>
     <use xlink:href="#DejaVuSans-61" transform="translate(1116.800781 0)"/>
     <use xlink:href="#DejaVuSans-64" transform="translate(1178.080078 0)"/>
     <use xlink:href="#DejaVuSans-73" transform="translate(1241.556641 0)"/>
    </g>
   </g>
   <g id="patch_41">
    <path d="M 558.752344 33.476562 
L 578.752344 33.476562 
L 578.752344 26.476562 
L 558.752344 26.476562 
z
" style="fill: #ffa500"/>
   </g>
   <g id="text_46">
    <!-- sview vec128 -->
    <g transform="translate(586.752344 33.476562) scale(0.1 -0.1)">
     <defs>
      <path id="DejaVuSans-76" d="M 191 3500 
L 800 3500 
L 1894 563 
L 2988 3500 
L 3597 3500 
L 2284 0 
L 1503 0 
L 191 3500 
z
" transform="scale(0.015625)"/>
     </defs>
     <use xlink:href="#DejaVuSans-73"/>
     <use xlink:href="#DejaVuSans-76" transform="translate(52.099609 0)"/>
     <use xlink:href="#DejaVuSans-69" transform="translate(111.279297 0)"/>
     <use xlink:href="#DejaVuSans-65" transform="translate(139.0625 0)"/>
     <use xlink:href="#DejaVuSans-77" transform="translate(200.585938 0)"/>
     <use xlink:href="#DejaVuSans-20" transform="translate(282.373047 0)"/>
     <use xlink:href="#DejaVuSans-76" transform="translate(314.160156 0)"/>
     <use xlink:href="#DejaVuSans-65" transform="translate(373.339844 0)"/>
     <use xlink:href="#DejaVuSans-63" transform="translate(434.863281 0)"/>
     <use xlink:href="#DejaVuSans-31" transform="translate(489.84375 0)"/>
     <use xlink:href="#DejaVuSans-32" transform="translate(553.466797 0)"/>
     <use xlink:href="#DejaVuSans-38" transform="translate(617.089844 0)"/>
    </g>
   </g>
   <g id="patch_42">
    <path d="M 558.752344 48.154687 
L 578.752344 48.154687 
L 578.752344 41.154687 
L 558.752344 41.154687 
z
" style="fill: #ff6347"/>
   </g>
   <g id="text_47">
    <!-- sview vec32 -->
    <g transform="translate(586.752344 48.154687) scale(0.1 -0.1)">
     <use xlink:href="#DejaVuSans-73"/>
     <use xlink:href="#DejaVuSans-76" transform="translate(52.099609 0)"/>
     <use xlink:href="#DejaVuSans-69" transform="translate(111.279297 0)"/>
     <use xlink:href="#DejaVuSans-65" transform="translate(139.0625 0)"/>
     <use xlink:href="#DejaVuSans-77" transform="translate(200.585938 0)"/>
     <use xlink:href="#DejaVuSans-20" transform="translate(282.373047 0)"/>
     <use xlink:href="#DejaVuSans-76" transform="translate(314.160156 0)"/>
     <use xlink:href="#DejaVuSans-65" transform="translate(373.339844 0)"/>
     <use xlink:href="#DejaVuSans-63" transform="translate(434.863281 0)"/>
     <use xlink:href="#DejaVuSans-33" transform="translate(489.84375 0)"/>
     <use xlink:href="#DejaVuSans-32" transform="translate(553.466797 0)"/>
    </g>
   </g>
  </g>
 </g>
 <defs>
  <clipPath id="p3fa74c8b32">
   <rect x="10.38125" y="100.7925" width="411.142661" height="309.16"/>
  </clipPath>
  <clipPath id="p976ce89111">
   <rect x="438.488589" y="100.7925" width="411.142661" height="309.16"/>
  </clipPath>
 </defs>
 <defs>
  <pattern id="h2649375973" patternUnits="userSpaceOnUse" x="0" y="0" width="72" height="72">
   <rect x="0" y="0" width="73" height="73" fill="#ee82ee"/>
   <path d="M -36 36 
L 36 -36 
M -30 42 
L 42 -30 
M -24 48 
L 48 -24 
M -18 54 
L 54 -18 
M -12 60 
L 60 -12 
M -6 66 
L 66 -6 
M 0 72 
L 72 0 
M 6 78 
L 78 6 
M 12 84 
L 84 12 
M 18 90 
L 90 18 
M 24 96 
L 96 24 
M 30 102 
L 102 30 
M 36 108 
L 108 36 
" style="fill: #000000; stroke: #000000; stroke-width: 1.0; stroke-linecap: butt; stroke-linejoin: miter"/>
  </pattern>
  <pattern id="hd6704d8eac" patternUnits="userSpaceOnUse" x="0" y="0" width="72" height="72">
   <rect x="0" y="0" width="73" height="73" fill="#ee82ee"/>
   <path d="M 0 69 
L 72 69 
M 0 63 
L 72 63 
M 0 57 
L 72 57 
M 0 51 
L 72 51 
M 0 45 
L 72 45 
M 0 39 
L 72 39 
M 0 33 
L 72 33 
M 0 27 
L 72 27 
M 0 21 
L 72 21 
M 0 15 
L 72 15 
M 0 9 
L 72 9 
M 0 3 
L 72 3 
M 3 72 
L 3 0 
M 9 72 
L 9 0 
M 15 72 
L 15 0 
M 21 72 
L 21 0 
M 27 72 
L 27 0 
M 33 72 
L 33 0 
M 39 72 
L 39 0 
M 45 72 
L 45 0 
M 51 72 
L 51 0 
M 57 72 
L 57 0 
M 63 72 
L 63 0 
M 69 72 
L 69 0 
" style="fill: #000000; stroke: #000000; stroke-width: 1.0; stroke-linecap: butt; stroke-linejoin: miter"/>
  </pattern>
 </defs>
</svg>
