<?xml version="1.0" encoding="utf-8" standalone="no"?>
<!DOCTYPE svg PUBLIC "-//W3C//DTD SVG 1.1//EN"
  "http://www.w3.org/Graphics/SVG/1.1/DTD/svg11.dtd">
<svg xmlns:xlink="http://www.w3.org/1999/xlink" width="856.83125pt" height="418.1525pt" viewBox="0 0 856.83125 418.1525" xmlns="http://www.w3.org/2000/svg" version="1.1">
 <metadata>
  <rdf:RDF xmlns:dc="http://purl.org/dc/elements/1.1/" xmlns:cc="http://creativecommons.org/ns#" xmlns:rdf="http://www.w3.org/1999/02/22-rdf-syntax-ns#">
   <cc:Work>
    <dc:type rdf:resource="http://purl.org/dc/dcmitype/StillImage"/>
    <dc:date>2025-09-25T21:37:57.977930</dc:date>
    <dc:format>image/svg+xml</dc:format>
    <dc:creator>
     <cc:Agent>
      <dc:title>Matplotlib v3.10.6, https://matplotlib.org/</dc:title>
     </cc:Agent>
    </dc:creator>
   </cc:Work>
  </rdf:RDF>
 </metadata>
 <defs>
  <style type="text/css">*{stroke-linejoin: round; stroke-linecap: butt}</style>
 </defs>
 <g id="figure_1">
  <g id="patch_1">
   <path d="M -0 418.1525 
L 856.83125 418.1525 
L 856.83125 0 
L -0 0 
z
" style="fill: #ffffff"/>
  </g>
  <g id="axes_1">
   <g id="patch_2">
    <path d="M 10.38125 380.59625 
L 420.66875 380.59625 
L 420.66875 71.43625 
L 10.38125 71.43625 
z
" style="fill: #ffffff"/>
   </g>
   <g id="patch_3">
    <path d="M 10.38125 144.658355 
L 366.444205 144.658355 
L 366.444205 85.488977 
L 10.38125 85.488977 
z
" clip-path="url(#p77023121a8)" style="fill: url(#hd7920a479b)"/>
   </g>
   <g id="patch_4">
    <path d="M 10.38125 218.620078 
L 367.152989 218.620078 
L 367.152989 159.4507 
L 10.38125 159.4507 
z
" clip-path="url(#p77023121a8)" style="fill: #db7093"/>
   </g>
   <g id="patch_5">
    <path d="M 10.38125 292.5818 
L 335.915844 292.5818 
L 335.915844 233.412422 
L 10.38125 233.412422 
z
" clip-path="url(#p77023121a8)" style="fill: #ee82ee"/>
   </g>
   <g id="patch_6">
    <path d="M 10.38125 366.543523 
L 322.195801 366.543523 
L 322.195801 307.374145 
L 10.38125 307.374145 
z
" clip-path="url(#p77023121a8)" style="fill: #6495ed"/>
   </g>
   <g id="matplotlib.axis_1">
    <g id="xtick_1">
     <g id="line2d_1">
      <defs>
       <path id="m9c754ce8c6" d="M 0 0 
L 0 3.5 
" style="stroke: #000000; stroke-width: 0.8"/>
      </defs>
      <g>
       <use xlink:href="#m9c754ce8c6" x="10.38125" y="380.59625" style="stroke: #000000; stroke-width: 0.8"/>
      </g>
     </g>
     <g id="text_1">
      <!-- 0 -->
      <g transform="translate(7.2 395.194687) scale(0.1 -0.1)">
       <defs>
        <path id="DejaVuSans-30" d="M 2034 4250 
Q 1547 4250 1301 3770 
Q 1056 3291 1056 2328 
Q 1056 1369 1301 889 
Q 1547 409 2034 409 
Q 2525 409 2770 889 
Q 3016 1369 3016 2328 
Q 3016 3291 2770 3770 
Q 2525 4250 2034 4250 
z
M 2034 4750 
Q 2819 4750 3233 4129 
Q 3647 3509 3647 2328 
Q 3647 1150 3233 529 
Q 2819 -91 2034 -91 
Q 1250 -91 836 529 
Q 422 1150 422 2328 
Q 422 3509 836 4129 
Q 1250 4750 2034 4750 
z
" transform="scale(0.015625)"/>
       </defs>
       <use xlink:href="#DejaVuSans-30"/>
      </g>
     </g>
    </g>
    <g id="xtick_2">
     <g id="line2d_2">
      <g>
       <use xlink:href="#m9c754ce8c6" x="61.008714" y="380.59625" style="stroke: #000000; stroke-width: 0.8"/>
      </g>
     </g>
     <g id="text_2">
      <!-- 1 -->
      <g transform="translate(57.827464 395.194687) scale(0.1 -0.1)">
       <defs>
        <path id="DejaVuSans-31" d="M 794 531 
L 1825 531 
L 1825 4091 
L 703 3866 
L 703 4441 
L 1819 4666 
L 2450 4666 
L 2450 531 
L 3481 531 
L 3481 0 
L 794 0 
L 794 531 
z
" transform="scale(0.015625)"/>
       </defs>
       <use xlink:href="#DejaVuSans-31"/>
      </g>
     </g>
    </g>
    <g id="xtick_3">
     <g id="line2d_3">
      <g>
       <use xlink:href="#m9c754ce8c6" x="111.636178" y="380.59625" style="stroke: #000000; stroke-width: 0.8"/>
      </g>
     </g>
     <g id="text_3">
      <!-- 2 -->
      <g transform="translate(108.454928 395.194687) scale(0.1 -0.1)">
       <defs>
        <path id="DejaVuSans-32" d="M 1228 531 
L 3431 531 
L 3431 0 
L 469 0 
L 469 531 
Q 828 903 1448 1529 
Q 2069 2156 2228 2338 
Q 2531 2678 2651 2914 
Q 2772 3150 2772 3378 
Q 2772 3750 2511 3984 
Q 2250 4219 1831 4219 
Q 1534 4219 1204 4116 
Q 875 4013 500 3803 
L 500 4441 
Q 881 4594 1212 4672 
Q 1544 4750 1819 4750 
Q 2544 4750 2975 4387 
Q 3406 4025 3406 3419 
Q 3406 3131 3298 2873 
Q 3191 2616 2906 2266 
Q 2828 2175 2409 1742 
Q 1991 1309 1228 531 
z
" transform="scale(0.015625)"/>
       </defs>
       <use xlink:href="#DejaVuSans-32"/>
      </g>
     </g>
    </g>
    <g id="xtick_4">
     <g id="line2d_4">
      <g>
       <use xlink:href="#m9c754ce8c6" x="162.263642" y="380.59625" style="stroke: #000000; stroke-width: 0.8"/>
      </g>
     </g>
     <g id="text_4">
      <!-- 3 -->
      <g transform="translate(159.082392 395.194687) scale(0.1 -0.1)">
       <defs>
        <path id="DejaVuSans-33" d="M 2597 2516 
Q 3050 2419 3304 2112 
Q 3559 1806 3559 1356 
Q 3559 666 3084 287 
Q 2609 -91 1734 -91 
Q 1441 -91 1130 -33 
Q 819 25 488 141 
L 488 750 
Q 750 597 1062 519 
Q 1375 441 1716 441 
Q 2309 441 2620 675 
Q 2931 909 2931 1356 
Q 2931 1769 2642 2001 
Q 2353 2234 1838 2234 
L 1294 2234 
L 1294 2753 
L 1863 2753 
Q 2328 2753 2575 2939 
Q 2822 3125 2822 3475 
Q 2822 3834 2567 4026 
Q 2313 4219 1838 4219 
Q 1578 4219 1281 4162 
Q 984 4106 628 3988 
L 628 4550 
Q 988 4650 1302 4700 
Q 1616 4750 1894 4750 
Q 2613 4750 3031 4423 
Q 3450 4097 3450 3541 
Q 3450 3153 3228 2886 
Q 3006 2619 2597 2516 
z
" transform="scale(0.015625)"/>
       </defs>
       <use xlink:href="#DejaVuSans-33"/>
      </g>
     </g>
    </g>
    <g id="xtick_5">
     <g id="line2d_5">
      <g>
       <use xlink:href="#m9c754ce8c6" x="212.891106" y="380.59625" style="stroke: #000000; stroke-width: 0.8"/>
      </g>
     </g>
     <g id="text_5">
      <!-- 4 -->
      <g transform="translate(209.709856 395.194687) scale(0.1 -0.1)">
       <defs>
        <path id="DejaVuSans-34" d="M 2419 4116 
L 825 1625 
L 2419 1625 
L 2419 4116 
z
M 2253 4666 
L 3047 4666 
L 3047 1625 
L 3713 1625 
L 3713 1100 
L 3047 1100 
L 3047 0 
L 2419 0 
L 2419 1100 
L 313 1100 
L 313 1709 
L 2253 4666 
z
" transform="scale(0.015625)"/>
       </defs>
       <use xlink:href="#DejaVuSans-34"/>
      </g>
     </g>
    </g>
    <g id="xtick_6">
     <g id="line2d_6">
      <g>
       <use xlink:href="#m9c754ce8c6" x="263.51857" y="380.59625" style="stroke: #000000; stroke-width: 0.8"/>
      </g>
     </g>
     <g id="text_6">
      <!-- 5 -->
      <g transform="translate(260.33732 395.194687) scale(0.1 -0.1)">
       <defs>
        <path id="DejaVuSans-35" d="M 691 4666 
L 3169 4666 
L 3169 4134 
L 1269 4134 
L 1269 2991 
Q 1406 3038 1543 3061 
Q 1681 3084 1819 3084 
Q 2600 3084 3056 2656 
Q 3513 2228 3513 1497 
Q 3513 744 3044 326 
Q 2575 -91 1722 -91 
Q 1428 -91 1123 -41 
Q 819 9 494 109 
L 494 744 
Q 775 591 1075 516 
Q 1375 441 1709 441 
Q 2250 441 2565 725 
Q 2881 1009 2881 1497 
Q 2881 1984 2565 2268 
Q 2250 2553 1709 2553 
Q 1456 2553 1204 2497 
Q 953 2441 691 2322 
L 691 4666 
z
" transform="scale(0.015625)"/>
       </defs>
       <use xlink:href="#DejaVuSans-35"/>
      </g>
     </g>
    </g>
    <g id="xtick_7">
     <g id="line2d_7">
      <g>
       <use xlink:href="#m9c754ce8c6" x="314.146034" y="380.59625" style="stroke: #000000; stroke-width: 0.8"/>
      </g>
     </g>
     <g id="text_7">
      <!-- 6 -->
      <g transform="translate(310.964784 395.194687) scale(0.1 -0.1)">
       <defs>
        <path id="DejaVuSans-36" d="M 2113 2584 
Q 1688 2584 1439 2293 
Q 1191 2003 1191 1497 
Q 1191 994 1439 701 
Q 1688 409 2113 409 
Q 2538 409 2786 701 
Q 3034 994 3034 1497 
Q 3034 2003 2786 2293 
Q 2538 2584 2113 2584 
z
M 3366 4563 
L 3366 3988 
Q 3128 4100 2886 4159 
Q 2644 4219 2406 4219 
Q 1781 4219 1451 3797 
Q 1122 3375 1075 2522 
Q 1259 2794 1537 2939 
Q 1816 3084 2150 3084 
Q 2853 3084 3261 2657 
Q 3669 2231 3669 1497 
Q 3669 778 3244 343 
Q 2819 -91 2113 -91 
Q 1303 -91 875 529 
Q 447 1150 447 2328 
Q 447 3434 972 4092 
Q 1497 4750 2381 4750 
Q 2619 4750 2861 4703 
Q 3103 4656 3366 4563 
z
" transform="scale(0.015625)"/>
       </defs>
       <use xlink:href="#DejaVuSans-36"/>
      </g>
     </g>
    </g>
    <g id="xtick_8">
     <g id="line2d_8">
      <g>
       <use xlink:href="#m9c754ce8c6" x="364.773498" y="380.59625" style="stroke: #000000; stroke-width: 0.8"/>
      </g>
     </g>
     <g id="text_8">
      <!-- 7 -->
      <g transform="translate(361.592248 395.194687) scale(0.1 -0.1)">
       <defs>
        <path id="DejaVuSans-37" d="M 525 4666 
L 3525 4666 
L 3525 4397 
L 1831 0 
L 1172 0 
L 2766 4134 
L 525 4134 
L 525 4666 
z
" transform="scale(0.015625)"/>
       </defs>
       <use xlink:href="#DejaVuSans-37"/>
      </g>
     </g>
    </g>
    <g id="xtick_9">
     <g id="line2d_9">
      <g>
       <use xlink:href="#m9c754ce8c6" x="415.400962" y="380.59625" style="stroke: #000000; stroke-width: 0.8"/>
      </g>
     </g>
     <g id="text_9">
      <!-- 8 -->
      <g transform="translate(412.219712 395.194687) scale(0.1 -0.1)">
       <defs>
        <path id="DejaVuSans-38" d="M 2034 2216 
Q 1584 2216 1326 1975 
Q 1069 1734 1069 1313 
Q 1069 891 1326 650 
Q 1584 409 2034 409 
Q 2484 409 2743 651 
Q 3003 894 3003 1313 
Q 3003 1734 2745 1975 
Q 2488 2216 2034 2216 
z
M 1403 2484 
Q 997 2584 770 2862 
Q 544 3141 544 3541 
Q 544 4100 942 4425 
Q 1341 4750 2034 4750 
Q 2731 4750 3128 4425 
Q 3525 4100 3525 3541 
Q 3525 3141 3298 2862 
Q 3072 2584 2669 2484 
Q 3125 2378 3379 2068 
Q 3634 1759 3634 1313 
Q 3634 634 3220 271 
Q 2806 -91 2034 -91 
Q 1263 -91 848 271 
Q 434 634 434 1313 
Q 434 1759 690 2068 
Q 947 2378 1403 2484 
z
M 1172 3481 
Q 1172 3119 1398 2916 
Q 1625 2713 2034 2713 
Q 2441 2713 2670 2916 
Q 2900 3119 2900 3481 
Q 2900 3844 2670 4047 
Q 2441 4250 2034 4250 
Q 1625 4250 1398 4047 
Q 1172 3844 1172 3481 
z
" transform="scale(0.015625)"/>
       </defs>
       <use xlink:href="#DejaVuSans-38"/>
      </g>
     </g>
    </g>
    <g id="text_10">
     <!-- seconds -->
     <g transform="translate(195.0875 408.872812) scale(0.1 -0.1)">
      <defs>
       <path id="DejaVuSans-73" d="M 2834 3397 
L 2834 2853 
Q 2591 2978 2328 3040 
Q 2066 3103 1784 3103 
Q 1356 3103 1142 2972 
Q 928 2841 928 2578 
Q 928 2378 1081 2264 
Q 1234 2150 1697 2047 
L 1894 2003 
Q 2506 1872 2764 1633 
Q 3022 1394 3022 966 
Q 3022 478 2636 193 
Q 2250 -91 1575 -91 
Q 1294 -91 989 -36 
Q 684 19 347 128 
L 347 722 
Q 666 556 975 473 
Q 1284 391 1588 391 
Q 1994 391 2212 530 
Q 2431 669 2431 922 
Q 2431 1156 2273 1281 
Q 2116 1406 1581 1522 
L 1381 1569 
Q 847 1681 609 1914 
Q 372 2147 372 2553 
Q 372 3047 722 3315 
Q 1072 3584 1716 3584 
Q 2034 3584 2315 3537 
Q 2597 3491 2834 3397 
z
" transform="scale(0.015625)"/>
       <path id="DejaVuSans-65" d="M 3597 1894 
L 3597 1613 
L 953 1613 
Q 991 1019 1311 708 
Q 1631 397 2203 397 
Q 2534 397 2845 478 
Q 3156 559 3463 722 
L 3463 178 
Q 3153 47 2828 -22 
Q 2503 -91 2169 -91 
Q 1331 -91 842 396 
Q 353 884 353 1716 
Q 353 2575 817 3079 
Q 1281 3584 2069 3584 
Q 2775 3584 3186 3129 
Q 3597 2675 3597 1894 
z
M 3022 2063 
Q 3016 2534 2758 2815 
Q 2500 3097 2075 3097 
Q 1594 3097 1305 2825 
Q 1016 2553 972 2059 
L 3022 2063 
z
" transform="scale(0.015625)"/>
       <path id="DejaVuSans-63" d="M 3122 3366 
L 3122 2828 
Q 2878 2963 2633 3030 
Q 2388 3097 2138 3097 
Q 1578 3097 1268 2742 
Q 959 2388 959 1747 
Q 959 1106 1268 751 
Q 1578 397 2138 397 
Q 2388 397 2633 464 
Q 2878 531 3122 666 
L 3122 134 
Q 2881 22 2623 -34 
Q 2366 -91 2075 -91 
Q 1284 -91 818 406 
Q 353 903 353 1747 
Q 353 2603 823 3093 
Q 1294 3584 2113 3584 
Q 2378 3584 2631 3529 
Q 2884 3475 3122 3366 
z
" transform="scale(0.015625)"/>
       <path id="DejaVuSans-6f" d="M 1959 3097 
Q 1497 3097 1228 2736 
Q 959 2375 959 1747 
Q 959 1119 1226 758 
Q 1494 397 1959 397 
Q 2419 397 2687 759 
Q 2956 1122 2956 1747 
Q 2956 2369 2687 2733 
Q 2419 3097 1959 3097 
z
M 1959 3584 
Q 2709 3584 3137 3096 
Q 3566 2609 3566 1747 
Q 3566 888 3137 398 
Q 2709 -91 1959 -91 
Q 1206 -91 779 398 
Q 353 888 353 1747 
Q 353 2609 779 3096 
Q 1206 3584 1959 3584 
z
" transform="scale(0.015625)"/>
       <path id="DejaVuSans-6e" d="M 3513 2113 
L 3513 0 
L 2938 0 
L 2938 2094 
Q 2938 2591 2744 2837 
Q 2550 3084 2163 3084 
Q 1697 3084 1428 2787 
Q 1159 2491 1159 1978 
L 1159 0 
L 581 0 
L 581 3500 
L 1159 3500 
L 1159 2956 
Q 1366 3272 1645 3428 
Q 1925 3584 2291 3584 
Q 2894 3584 3203 3211 
Q 3513 2838 3513 2113 
z
" transform="scale(0.015625)"/>
       <path id="DejaVuSans-64" d="M 2906 2969 
L 2906 4863 
L 3481 4863 
L 3481 0 
L 2906 0 
L 2906 525 
Q 2725 213 2448 61 
Q 2172 -91 1784 -91 
Q 1150 -91 751 415 
Q 353 922 353 1747 
Q 353 2572 751 3078 
Q 1150 3584 1784 3584 
Q 2172 3584 2448 3432 
Q 2725 3281 2906 2969 
z
M 947 1747 
Q 947 1113 1208 752 
Q 1469 391 1925 391 
Q 2381 391 2643 752 
Q 2906 1113 2906 1747 
Q 2906 2381 2643 2742 
Q 2381 3103 1925 3103 
Q 1469 3103 1208 2742 
Q 947 2381 947 1747 
z
" transform="scale(0.015625)"/>
      </defs>
      <use xlink:href="#DejaVuSans-73"/>
      <use xlink:href="#DejaVuSans-65" transform="translate(52.099609 0)"/>
      <use xlink:href="#DejaVuSans-63" transform="translate(113.623047 0)"/>
      <use xlink:href="#DejaVuSans-6f" transform="translate(168.603516 0)"/>
      <use xlink:href="#DejaVuSans-6e" transform="translate(229.785156 0)"/>
      <use xlink:href="#DejaVuSans-64" transform="translate(293.164062 0)"/>
      <use xlink:href="#DejaVuSans-73" transform="translate(356.640625 0)"/>
     </g>
    </g>
   </g>
   <g id="matplotlib.axis_2"/>
   <g id="patch_7">
    <path d="M 10.38125 380.59625 
L 10.38125 71.43625 
" style="fill: none; stroke: #000000; stroke-width: 0.8; stroke-linejoin: miter; stroke-linecap: square"/>
   </g>
   <g id="patch_8">
    <path d="M 420.66875 380.59625 
L 420.66875 71.43625 
" style="fill: none; stroke: #000000; stroke-width: 0.8; stroke-linejoin: miter; stroke-linecap: square"/>
   </g>
   <g id="patch_9">
    <path d="M 10.38125 380.59625 
L 420.66875 380.59625 
" style="fill: none; stroke: #000000; stroke-width: 0.8; stroke-linejoin: miter; stroke-linecap: square"/>
   </g>
   <g id="patch_10">
    <path d="M 10.38125 71.43625 
L 420.66875 71.43625 
" style="fill: none; stroke: #000000; stroke-width: 0.8; stroke-linejoin: miter; stroke-linecap: square"/>
   </g>
   <g id="text_11">
    <!-- 7.0 -->
    <g transform="translate(368.444205 117.833041) scale(0.1 -0.1)">
     <defs>
      <path id="DejaVuSans-2e" d="M 684 794 
L 1344 794 
L 1344 0 
L 684 0 
L 684 794 
z
" transform="scale(0.015625)"/>
     </defs>
     <use xlink:href="#DejaVuSans-37"/>
     <use xlink:href="#DejaVuSans-2e" transform="translate(63.623047 0)"/>
     <use xlink:href="#DejaVuSans-30" transform="translate(95.410156 0)"/>
    </g>
   </g>
   <g id="text_12">
    <!-- 7.0 -->
    <g transform="translate(369.152989 191.794764) scale(0.1 -0.1)">
     <use xlink:href="#DejaVuSans-37"/>
     <use xlink:href="#DejaVuSans-2e" transform="translate(63.623047 0)"/>
     <use xlink:href="#DejaVuSans-30" transform="translate(95.410156 0)"/>
    </g>
   </g>
   <g id="text_13">
    <!-- 6.4 -->
    <g transform="translate(337.915844 265.756486) scale(0.1 -0.1)">
     <use xlink:href="#DejaVuSans-36"/>
     <use xlink:href="#DejaVuSans-2e" transform="translate(63.623047 0)"/>
     <use xlink:href="#DejaVuSans-34" transform="translate(95.410156 0)"/>
    </g>
   </g>
   <g id="text_14">
    <!-- 6.2 -->
    <g transform="translate(324.195801 339.718209) scale(0.1 -0.1)">
     <use xlink:href="#DejaVuSans-36"/>
     <use xlink:href="#DejaVuSans-2e" transform="translate(63.623047 0)"/>
     <use xlink:href="#DejaVuSans-32" transform="translate(95.410156 0)"/>
    </g>
   </g>
   <g id="text_15">
    <!-- running time in seconds -->
    <g transform="translate(143.102188 65.43625) scale(0.12 -0.12)">
     <defs>
      <path id="DejaVuSans-72" d="M 2631 2963 
Q 2534 3019 2420 3045 
Q 2306 3072 2169 3072 
Q 1681 3072 1420 2755 
Q 1159 2438 1159 1844 
L 1159 0 
L 581 0 
L 581 3500 
L 1159 3500 
L 1159 2956 
Q 1341 3275 1631 3429 
Q 1922 3584 2338 3584 
Q 2397 3584 2469 3576 
Q 2541 3569 2628 3553 
L 2631 2963 
z
" transform="scale(0.015625)"/>
      <path id="DejaVuSans-75" d="M 544 1381 
L 544 3500 
L 1119 3500 
L 1119 1403 
Q 1119 906 1312 657 
Q 1506 409 1894 409 
Q 2359 409 2629 706 
Q 2900 1003 2900 1516 
L 2900 3500 
L 3475 3500 
L 3475 0 
L 2900 0 
L 2900 538 
Q 2691 219 2414 64 
Q 2138 -91 1772 -91 
Q 1169 -91 856 284 
Q 544 659 544 1381 
z
M 1991 3584 
L 1991 3584 
z
" transform="scale(0.015625)"/>
      <path id="DejaVuSans-69" d="M 603 3500 
L 1178 3500 
L 1178 0 
L 603 0 
L 603 3500 
z
M 603 4863 
L 1178 4863 
L 1178 4134 
L 603 4134 
L 603 4863 
z
" transform="scale(0.015625)"/>
      <path id="DejaVuSans-67" d="M 2906 1791 
Q 2906 2416 2648 2759 
Q 2391 3103 1925 3103 
Q 1463 3103 1205 2759 
Q 947 2416 947 1791 
Q 947 1169 1205 825 
Q 1463 481 1925 481 
Q 2391 481 2648 825 
Q 2906 1169 2906 1791 
z
M 3481 434 
Q 3481 -459 3084 -895 
Q 2688 -1331 1869 -1331 
Q 1566 -1331 1297 -1286 
Q 1028 -1241 775 -1147 
L 775 -588 
Q 1028 -725 1275 -790 
Q 1522 -856 1778 -856 
Q 2344 -856 2625 -561 
Q 2906 -266 2906 331 
L 2906 616 
Q 2728 306 2450 153 
Q 2172 0 1784 0 
Q 1141 0 747 490 
Q 353 981 353 1791 
Q 353 2603 747 3093 
Q 1141 3584 1784 3584 
Q 2172 3584 2450 3431 
Q 2728 3278 2906 2969 
L 2906 3500 
L 3481 3500 
L 3481 434 
z
" transform="scale(0.015625)"/>
      <path id="DejaVuSans-20" transform="scale(0.015625)"/>
      <path id="DejaVuSans-74" d="M 1172 4494 
L 1172 3500 
L 2356 3500 
L 2356 3053 
L 1172 3053 
L 1172 1153 
Q 1172 725 1289 603 
Q 1406 481 1766 481 
L 2356 481 
L 2356 0 
L 1766 0 
Q 1100 0 847 248 
Q 594 497 594 1153 
L 594 3053 
L 172 3053 
L 172 3500 
L 594 3500 
L 594 4494 
L 1172 4494 
z
" transform="scale(0.015625)"/>
      <path id="DejaVuSans-6d" d="M 3328 2828 
Q 3544 3216 3844 3400 
Q 4144 3584 4550 3584 
Q 5097 3584 5394 3201 
Q 5691 2819 5691 2113 
L 5691 0 
L 5113 0 
L 5113 2094 
Q 5113 2597 4934 2840 
Q 4756 3084 4391 3084 
Q 3944 3084 3684 2787 
Q 3425 2491 3425 1978 
L 3425 0 
L 2847 0 
L 2847 2094 
Q 2847 2600 2669 2842 
Q 2491 3084 2119 3084 
Q 1678 3084 1418 2786 
Q 1159 2488 1159 1978 
L 1159 0 
L 581 0 
L 581 3500 
L 1159 3500 
L 1159 2956 
Q 1356 3278 1631 3431 
Q 1906 3584 2284 3584 
Q 2666 3584 2933 3390 
Q 3200 3197 3328 2828 
z
" transform="scale(0.015625)"/>
     </defs>
     <use xlink:href="#DejaVuSans-72"/>
     <use xlink:href="#DejaVuSans-75" transform="translate(41.113281 0)"/>
     <use xlink:href="#DejaVuSans-6e" transform="translate(104.492188 0)"/>
     <use xlink:href="#DejaVuSans-6e" transform="translate(167.871094 0)"/>
     <use xlink:href="#DejaVuSans-69" transform="translate(231.25 0)"/>
     <use xlink:href="#DejaVuSans-6e" transform="translate(259.033203 0)"/>
     <use xlink:href="#DejaVuSans-67" transform="translate(322.412109 0)"/>
     <use xlink:href="#DejaVuSans-20" transform="translate(385.888672 0)"/>
     <use xlink:href="#DejaVuSans-74" transform="translate(417.675781 0)"/>
     <use xlink:href="#DejaVuSans-69" transform="translate(456.884766 0)"/>
     <use xlink:href="#DejaVuSans-6d" transform="translate(484.667969 0)"/>
     <use xlink:href="#DejaVuSans-65" transform="translate(582.080078 0)"/>
     <use xlink:href="#DejaVuSans-20" transform="translate(643.603516 0)"/>
     <use xlink:href="#DejaVuSans-69" transform="translate(675.390625 0)"/>
     <use xlink:href="#DejaVuSans-6e" transform="translate(703.173828 0)"/>
     <use xlink:href="#DejaVuSans-20" transform="translate(766.552734 0)"/>
     <use xlink:href="#DejaVuSans-73" transform="translate(798.339844 0)"/>
     <use xlink:href="#DejaVuSans-65" transform="translate(850.439453 0)"/>
     <use xlink:href="#DejaVuSans-63" transform="translate(911.962891 0)"/>
     <use xlink:href="#DejaVuSans-6f" transform="translate(966.943359 0)"/>
     <use xlink:href="#DejaVuSans-6e" transform="translate(1028.125 0)"/>
     <use xlink:href="#DejaVuSans-64" transform="translate(1091.503906 0)"/>
     <use xlink:href="#DejaVuSans-73" transform="translate(1154.980469 0)"/>
    </g>
   </g>
  </g>
  <g id="axes_2">
   <g id="patch_11">
    <path d="M 439.34375 380.59625 
L 849.63125 380.59625 
L 849.63125 71.43625 
L 439.34375 71.43625 
z
" style="fill: #ffffff"/>
   </g>
   <g id="patch_12">
    <path d="M 439.34375 144.658355 
L 735.578771 144.658355 
L 735.578771 85.488977 
L 439.34375 85.488977 
z
" clip-path="url(#pbdccb21974)" style="fill: url(#hd7920a479b)"/>
   </g>
   <g id="patch_13">
    <path d="M 439.34375 218.620078 
L 792.410808 218.620078 
L 792.410808 159.4507 
L 439.34375 159.4507 
z
" clip-path="url(#pbdccb21974)" style="fill: #db7093"/>
   </g>
   <g id="patch_14">
    <path d="M 439.34375 292.5818 
L 792.870527 292.5818 
L 792.870527 233.412422 
L 439.34375 233.412422 
z
" clip-path="url(#pbdccb21974)" style="fill: #ee82ee"/>
   </g>
   <g id="patch_15">
    <path d="M 439.34375 366.543523 
L 796.115489 366.543523 
L 796.115489 307.374145 
L 439.34375 307.374145 
z
" clip-path="url(#pbdccb21974)" style="fill: #6495ed"/>
   </g>
   <g id="matplotlib.axis_3">
    <g id="xtick_10">
     <g id="line2d_10">
      <g>
       <use xlink:href="#m9c754ce8c6" x="439.34375" y="380.59625" style="stroke: #000000; stroke-width: 0.8"/>
      </g>
     </g>
     <g id="text_16">
      <!-- 0.0 -->
      <g transform="translate(431.392187 395.194687) scale(0.1 -0.1)">
       <use xlink:href="#DejaVuSans-30"/>
       <use xlink:href="#DejaVuSans-2e" transform="translate(63.623047 0)"/>
       <use xlink:href="#DejaVuSans-30" transform="translate(95.410156 0)"/>
      </g>
     </g>
    </g>
    <g id="xtick_11">
     <g id="line2d_11">
      <g>
       <use xlink:href="#m9c754ce8c6" x="487.431509" y="380.59625" style="stroke: #000000; stroke-width: 0.8"/>
      </g>
     </g>
     <g id="text_17">
      <!-- 0.2 -->
      <g transform="translate(479.479946 395.194687) scale(0.1 -0.1)">
       <use xlink:href="#DejaVuSans-30"/>
       <use xlink:href="#DejaVuSans-2e" transform="translate(63.623047 0)"/>
       <use xlink:href="#DejaVuSans-32" transform="translate(95.410156 0)"/>
      </g>
     </g>
    </g>
    <g id="xtick_12">
     <g id="line2d_12">
      <g>
       <use xlink:href="#m9c754ce8c6" x="535.519268" y="380.59625" style="stroke: #000000; stroke-width: 0.8"/>
      </g>
     </g>
     <g id="text_18">
      <!-- 0.4 -->
      <g transform="translate(527.567705 395.194687) scale(0.1 -0.1)">
       <use xlink:href="#DejaVuSans-30"/>
       <use xlink:href="#DejaVuSans-2e" transform="translate(63.623047 0)"/>
       <use xlink:href="#DejaVuSans-34" transform="translate(95.410156 0)"/>
      </g>
     </g>
    </g>
    <g id="xtick_13">
     <g id="line2d_13">
      <g>
       <use xlink:href="#m9c754ce8c6" x="583.607027" y="380.59625" style="stroke: #000000; stroke-width: 0.8"/>
      </g>
     </g>
     <g id="text_19">
      <!-- 0.6 -->
      <g transform="translate(575.655464 395.194687) scale(0.1 -0.1)">
       <use xlink:href="#DejaVuSans-30"/>
       <use xlink:href="#DejaVuSans-2e" transform="translate(63.623047 0)"/>
       <use xlink:href="#DejaVuSans-36" transform="translate(95.410156 0)"/>
      </g>
     </g>
    </g>
    <g id="xtick_14">
     <g id="line2d_14">
      <g>
       <use xlink:href="#m9c754ce8c6" x="631.694786" y="380.59625" style="stroke: #000000; stroke-width: 0.8"/>
      </g>
     </g>
     <g id="text_20">
      <!-- 0.8 -->
      <g transform="translate(623.743223 395.194687) scale(0.1 -0.1)">
       <use xlink:href="#DejaVuSans-30"/>
       <use xlink:href="#DejaVuSans-2e" transform="translate(63.623047 0)"/>
       <use xlink:href="#DejaVuSans-38" transform="translate(95.410156 0)"/>
      </g>
     </g>
    </g>
    <g id="xtick_15">
     <g id="line2d_15">
      <g>
       <use xlink:href="#m9c754ce8c6" x="679.782545" y="380.59625" style="stroke: #000000; stroke-width: 0.8"/>
      </g>
     </g>
     <g id="text_21">
      <!-- 1.0 -->
      <g transform="translate(671.830982 395.194687) scale(0.1 -0.1)">
       <use xlink:href="#DejaVuSans-31"/>
       <use xlink:href="#DejaVuSans-2e" transform="translate(63.623047 0)"/>
       <use xlink:href="#DejaVuSans-30" transform="translate(95.410156 0)"/>
      </g>
     </g>
    </g>
    <g id="xtick_16">
     <g id="line2d_16">
      <g>
       <use xlink:href="#m9c754ce8c6" x="727.870303" y="380.59625" style="stroke: #000000; stroke-width: 0.8"/>
      </g>
     </g>
     <g id="text_22">
      <!-- 1.2 -->
      <g transform="translate(719.918741 395.194687) scale(0.1 -0.1)">
       <use xlink:href="#DejaVuSans-31"/>
       <use xlink:href="#DejaVuSans-2e" transform="translate(63.623047 0)"/>
       <use xlink:href="#DejaVuSans-32" transform="translate(95.410156 0)"/>
      </g>
     </g>
    </g>
    <g id="xtick_17">
     <g id="line2d_17">
      <g>
       <use xlink:href="#m9c754ce8c6" x="775.958062" y="380.59625" style="stroke: #000000; stroke-width: 0.8"/>
      </g>
     </g>
     <g id="text_23">
      <!-- 1.4 -->
      <g transform="translate(768.0065 395.194687) scale(0.1 -0.1)">
       <use xlink:href="#DejaVuSans-31"/>
       <use xlink:href="#DejaVuSans-2e" transform="translate(63.623047 0)"/>
       <use xlink:href="#DejaVuSans-34" transform="translate(95.410156 0)"/>
      </g>
     </g>
    </g>
    <g id="xtick_18">
     <g id="line2d_18">
      <g>
       <use xlink:href="#m9c754ce8c6" x="824.045821" y="380.59625" style="stroke: #000000; stroke-width: 0.8"/>
      </g>
     </g>
     <g id="text_24">
      <!-- 1.6 -->
      <g transform="translate(816.094259 395.194687) scale(0.1 -0.1)">
       <use xlink:href="#DejaVuSans-31"/>
       <use xlink:href="#DejaVuSans-2e" transform="translate(63.623047 0)"/>
       <use xlink:href="#DejaVuSans-36" transform="translate(95.410156 0)"/>
      </g>
     </g>
    </g>
    <g id="text_25">
     <!-- gigabytes -->
     <g transform="translate(619.910937 408.872812) scale(0.1 -0.1)">
      <defs>
       <path id="DejaVuSans-61" d="M 2194 1759 
Q 1497 1759 1228 1600 
Q 959 1441 959 1056 
Q 959 750 1161 570 
Q 1363 391 1709 391 
Q 2188 391 2477 730 
Q 2766 1069 2766 1631 
L 2766 1759 
L 2194 1759 
z
M 3341 1997 
L 3341 0 
L 2766 0 
L 2766 531 
Q 2569 213 2275 61 
Q 1981 -91 1556 -91 
Q 1019 -91 701 211 
Q 384 513 384 1019 
Q 384 1609 779 1909 
Q 1175 2209 1959 2209 
L 2766 2209 
L 2766 2266 
Q 2766 2663 2505 2880 
Q 2244 3097 1772 3097 
Q 1472 3097 1187 3025 
Q 903 2953 641 2809 
L 641 3341 
Q 956 3463 1253 3523 
Q 1550 3584 1831 3584 
Q 2591 3584 2966 3190 
Q 3341 2797 3341 1997 
z
" transform="scale(0.015625)"/>
       <path id="DejaVuSans-62" d="M 3116 1747 
Q 3116 2381 2855 2742 
Q 2594 3103 2138 3103 
Q 1681 3103 1420 2742 
Q 1159 2381 1159 1747 
Q 1159 1113 1420 752 
Q 1681 391 2138 391 
Q 2594 391 2855 752 
Q 3116 1113 3116 1747 
z
M 1159 2969 
Q 1341 3281 1617 3432 
Q 1894 3584 2278 3584 
Q 2916 3584 3314 3078 
Q 3713 2572 3713 1747 
Q 3713 922 3314 415 
Q 2916 -91 2278 -91 
Q 1894 -91 1617 61 
Q 1341 213 1159 525 
L 1159 0 
L 581 0 
L 581 4863 
L 1159 4863 
L 1159 2969 
z
" transform="scale(0.015625)"/>
       <path id="DejaVuSans-79" d="M 2059 -325 
Q 1816 -950 1584 -1140 
Q 1353 -1331 966 -1331 
L 506 -1331 
L 506 -850 
L 844 -850 
Q 1081 -850 1212 -737 
Q 1344 -625 1503 -206 
L 1606 56 
L 191 3500 
L 800 3500 
L 1894 763 
L 2988 3500 
L 3597 3500 
L 2059 -325 
z
" transform="scale(0.015625)"/>
      </defs>
      <use xlink:href="#DejaVuSans-67"/>
      <use xlink:href="#DejaVuSans-69" transform="translate(63.476562 0)"/>
      <use xlink:href="#DejaVuSans-67" transform="translate(91.259766 0)"/>
      <use xlink:href="#DejaVuSans-61" transform="translate(154.736328 0)"/>
      <use xlink:href="#DejaVuSans-62" transform="translate(216.015625 0)"/>
      <use xlink:href="#DejaVuSans-79" transform="translate(279.492188 0)"/>
      <use xlink:href="#DejaVuSans-74" transform="translate(338.671875 0)"/>
      <use xlink:href="#DejaVuSans-65" transform="translate(377.880859 0)"/>
      <use xlink:href="#DejaVuSans-73" transform="translate(439.404297 0)"/>
     </g>
    </g>
   </g>
   <g id="matplotlib.axis_4"/>
   <g id="patch_16">
    <path d="M 439.34375 380.59625 
L 439.34375 71.43625 
" style="fill: none; stroke: #000000; stroke-width: 0.8; stroke-linejoin: miter; stroke-linecap: square"/>
   </g>
   <g id="patch_17">
    <path d="M 849.63125 380.59625 
L 849.63125 71.43625 
" style="fill: none; stroke: #000000; stroke-width: 0.8; stroke-linejoin: miter; stroke-linecap: square"/>
   </g>
   <g id="patch_18">
    <path d="M 439.34375 380.59625 
L 849.63125 380.59625 
" style="fill: none; stroke: #000000; stroke-width: 0.8; stroke-linejoin: miter; stroke-linecap: square"/>
   </g>
   <g id="patch_19">
    <path d="M 439.34375 71.43625 
L 849.63125 71.43625 
" style="fill: none; stroke: #000000; stroke-width: 0.8; stroke-linejoin: miter; stroke-linecap: square"/>
   </g>
   <g id="text_26">
    <!-- 1.2 -->
    <g transform="translate(737.578771 117.833041) scale(0.1 -0.1)">
     <use xlink:href="#DejaVuSans-31"/>
     <use xlink:href="#DejaVuSans-2e" transform="translate(63.623047 0)"/>
     <use xlink:href="#DejaVuSans-32" transform="translate(95.410156 0)"/>
    </g>
   </g>
   <g id="text_27">
    <!-- 1.5 -->
    <g transform="translate(794.410808 191.794764) scale(0.1 -0.1)">
     <use xlink:href="#DejaVuSans-31"/>
     <use xlink:href="#DejaVuSans-2e" transform="translate(63.623047 0)"/>
     <use xlink:href="#DejaVuSans-35" transform="translate(95.410156 0)"/>
    </g>
   </g>
   <g id="text_28">
    <!-- 1.5 -->
    <g transform="translate(794.870527 265.756486) scale(0.1 -0.1)">
     <use xlink:href="#DejaVuSans-31"/>
     <use xlink:href="#DejaVuSans-2e" transform="translate(63.623047 0)"/>
     <use xlink:href="#DejaVuSans-35" transform="translate(95.410156 0)"/>
    </g>
   </g>
   <g id="text_29">
    <!-- 1.5 -->
    <g transform="translate(798.115489 339.718209) scale(0.1 -0.1)">
     <use xlink:href="#DejaVuSans-31"/>
     <use xlink:href="#DejaVuSans-2e" transform="translate(63.623047 0)"/>
     <use xlink:href="#DejaVuSans-35" transform="translate(95.410156 0)"/>
    </g>
   </g>
   <g id="text_30">
    <!-- peak memory usage in gigabytes -->
    <g transform="translate(544.070937 65.43625) scale(0.12 -0.12)">
     <defs>
      <path id="DejaVuSans-70" d="M 1159 525 
L 1159 -1331 
L 581 -1331 
L 581 3500 
L 1159 3500 
L 1159 2969 
Q 1341 3281 1617 3432 
Q 1894 3584 2278 3584 
Q 2916 3584 3314 3078 
Q 3713 2572 3713 1747 
Q 3713 922 3314 415 
Q 2916 -91 2278 -91 
Q 1894 -91 1617 61 
Q 1341 213 1159 525 
z
M 3116 1747 
Q 3116 2381 2855 2742 
Q 2594 3103 2138 3103 
Q 1681 3103 1420 2742 
Q 1159 2381 1159 1747 
Q 1159 1113 1420 752 
Q 1681 391 2138 391 
Q 2594 391 2855 752 
Q 3116 1113 3116 1747 
z
" transform="scale(0.015625)"/>
      <path id="DejaVuSans-6b" d="M 581 4863 
L 1159 4863 
L 1159 1991 
L 2875 3500 
L 3609 3500 
L 1753 1863 
L 3688 0 
L 2938 0 
L 1159 1709 
L 1159 0 
L 581 0 
L 581 4863 
z
" transform="scale(0.015625)"/>
     </defs>
     <use xlink:href="#DejaVuSans-70"/>
     <use xlink:href="#DejaVuSans-65" transform="translate(63.476562 0)"/>
     <use xlink:href="#DejaVuSans-61" transform="translate(125 0)"/>
     <use xlink:href="#DejaVuSans-6b" transform="translate(186.279297 0)"/>
     <use xlink:href="#DejaVuSans-20" transform="translate(244.189453 0)"/>
     <use xlink:href="#DejaVuSans-6d" transform="translate(275.976562 0)"/>
     <use xlink:href="#DejaVuSans-65" transform="translate(373.388672 0)"/>
     <use xlink:href="#DejaVuSans-6d" transform="translate(434.912109 0)"/>
     <use xlink:href="#DejaVuSans-6f" transform="translate(532.324219 0)"/>
     <use xlink:href="#DejaVuSans-72" transform="translate(593.505859 0)"/>
     <use xlink:href="#DejaVuSans-79" transform="translate(634.619141 0)"/>
     <use xlink:href="#DejaVuSans-20" transform="translate(693.798828 0)"/>
     <use xlink:href="#DejaVuSans-75" transform="translate(725.585938 0)"/>
     <use xlink:href="#DejaVuSans-73" transform="translate(788.964844 0)"/>
     <use xlink:href="#DejaVuSans-61" transform="translate(841.064453 0)"/>
     <use xlink:href="#DejaVuSans-67" transform="translate(902.34375 0)"/>
     <use xlink:href="#DejaVuSans-65" transform="translate(965.820312 0)"/>
     <use xlink:href="#DejaVuSans-20" transform="translate(1027.34375 0)"/>
     <use xlink:href="#DejaVuSans-69" transform="translate(1059.130859 0)"/>
     <use xlink:href="#DejaVuSans-6e" transform="translate(1086.914062 0)"/>
     <use xlink:href="#DejaVuSans-20" transform="translate(1150.292969 0)"/>
     <use xlink:href="#DejaVuSans-67" transform="translate(1182.080078 0)"/>
     <use xlink:href="#DejaVuSans-69" transform="translate(1245.556641 0)"/>
     <use xlink:href="#DejaVuSans-67" transform="translate(1273.339844 0)"/>
     <use xlink:href="#DejaVuSans-61" transform="translate(1336.816406 0)"/>
     <use xlink:href="#DejaVuSans-62" transform="translate(1398.095703 0)"/>
     <use xlink:href="#DejaVuSans-79" transform="translate(1461.572266 0)"/>
     <use xlink:href="#DejaVuSans-74" transform="translate(1520.751953 0)"/>
     <use xlink:href="#DejaVuSans-65" transform="translate(1559.960938 0)"/>
     <use xlink:href="#DejaVuSans-73" transform="translate(1621.484375 0)"/>
    </g>
   </g>
  </g>
  <g id="legend_1">
   <g id="patch_20">
    <path d="M 113.035156 39.55625 
L 743.827344 39.55625 
Q 745.827344 39.55625 745.827344 37.55625 
L 745.827344 9.2 
Q 745.827344 7.2 743.827344 7.2 
L 113.035156 7.2 
Q 111.035156 7.2 111.035156 9.2 
L 111.035156 37.55625 
Q 111.035156 39.55625 113.035156 39.55625 
z
" style="fill: #ffffff; opacity: 0.8; stroke: #cccccc; stroke-linejoin: miter"/>
   </g>
   <g id="patch_21">
    <path d="M 115.035156 18.798437 
L 135.035156 18.798437 
L 135.035156 11.798437 
L 115.035156 11.798437 
z
" style="fill: url(#hd7920a479b)"/>
   </g>
   <g id="text_31">
    <!-- genedex cond512, 8 threads, medium memory -->
    <g transform="translate(143.035156 18.798437) scale(0.1 -0.1)">
     <defs>
      <path id="DejaVuSans-78" d="M 3513 3500 
L 2247 1797 
L 3578 0 
L 2900 0 
L 1881 1375 
L 863 0 
L 184 0 
L 1544 1831 
L 300 3500 
L 978 3500 
L 1906 2253 
L 2834 3500 
L 3513 3500 
z
" transform="scale(0.015625)"/>
      <path id="DejaVuSans-2c" d="M 750 794 
L 1409 794 
L 1409 256 
L 897 -744 
L 494 -744 
L 750 256 
L 750 794 
z
" transform="scale(0.015625)"/>
      <path id="DejaVuSans-68" d="M 3513 2113 
L 3513 0 
L 2938 0 
L 2938 2094 
Q 2938 2591 2744 2837 
Q 2550 3084 2163 3084 
Q 1697 3084 1428 2787 
Q 1159 2491 1159 1978 
L 1159 0 
L 581 0 
L 581 4863 
L 1159 4863 
L 1159 2956 
Q 1366 3272 1645 3428 
Q 1925 3584 2291 3584 
Q 2894 3584 3203 3211 
Q 3513 2838 3513 2113 
z
" transform="scale(0.015625)"/>
     </defs>
     <use xlink:href="#DejaVuSans-67"/>
     <use xlink:href="#DejaVuSans-65" transform="translate(63.476562 0)"/>
     <use xlink:href="#DejaVuSans-6e" transform="translate(125 0)"/>
     <use xlink:href="#DejaVuSans-65" transform="translate(188.378906 0)"/>
     <use xlink:href="#DejaVuSans-64" transform="translate(249.902344 0)"/>
     <use xlink:href="#DejaVuSans-65" transform="translate(313.378906 0)"/>
     <use xlink:href="#DejaVuSans-78" transform="translate(373.152344 0)"/>
     <use xlink:href="#DejaVuSans-20" transform="translate(432.332031 0)"/>
     <use xlink:href="#DejaVuSans-63" transform="translate(464.119141 0)"/>
     <use xlink:href="#DejaVuSans-6f" transform="translate(519.099609 0)"/>
     <use xlink:href="#DejaVuSans-6e" transform="translate(580.28125 0)"/>
     <use xlink:href="#DejaVuSans-64" transform="translate(643.660156 0)"/>
     <use xlink:href="#DejaVuSans-35" transform="translate(707.136719 0)"/>
     <use xlink:href="#DejaVuSans-31" transform="translate(770.759766 0)"/>
     <use xlink:href="#DejaVuSans-32" transform="translate(834.382812 0)"/>
     <use xlink:href="#DejaVuSans-2c" transform="translate(898.005859 0)"/>
     <use xlink:href="#DejaVuSans-20" transform="translate(929.792969 0)"/>
     <use xlink:href="#DejaVuSans-38" transform="translate(961.580078 0)"/>
     <use xlink:href="#DejaVuSans-20" transform="translate(1025.203125 0)"/>
     <use xlink:href="#DejaVuSans-74" transform="translate(1056.990234 0)"/>
     <use xlink:href="#DejaVuSans-68" transform="translate(1096.199219 0)"/>
     <use xlink:href="#DejaVuSans-72" transform="translate(1159.578125 0)"/>
     <use xlink:href="#DejaVuSans-65" transform="translate(1198.441406 0)"/>
     <use xlink:href="#DejaVuSans-61" transform="translate(1259.964844 0)"/>
     <use xlink:href="#DejaVuSans-64" transform="translate(1321.244141 0)"/>
     <use xlink:href="#DejaVuSans-73" transform="translate(1384.720703 0)"/>
     <use xlink:href="#DejaVuSans-2c" transform="translate(1436.820312 0)"/>
     <use xlink:href="#DejaVuSans-20" transform="translate(1468.607422 0)"/>
     <use xlink:href="#DejaVuSans-6d" transform="translate(1500.394531 0)"/>
     <use xlink:href="#DejaVuSans-65" transform="translate(1597.806641 0)"/>
     <use xlink:href="#DejaVuSans-64" transform="translate(1659.330078 0)"/>
     <use xlink:href="#DejaVuSans-69" transform="translate(1722.806641 0)"/>
     <use xlink:href="#DejaVuSans-75" transform="translate(1750.589844 0)"/>
     <use xlink:href="#DejaVuSans-6d" transform="translate(1813.96875 0)"/>
     <use xlink:href="#DejaVuSans-20" transform="translate(1911.380859 0)"/>
     <use xlink:href="#DejaVuSans-6d" transform="translate(1943.167969 0)"/>
     <use xlink:href="#DejaVuSans-65" transform="translate(2040.580078 0)"/>
     <use xlink:href="#DejaVuSans-6d" transform="translate(2102.103516 0)"/>
     <use xlink:href="#DejaVuSans-6f" transform="translate(2199.515625 0)"/>
     <use xlink:href="#DejaVuSans-72" transform="translate(2260.697266 0)"/>
     <use xlink:href="#DejaVuSans-79" transform="translate(2301.810547 0)"/>
    </g>
   </g>
   <g id="patch_22">
    <path d="M 115.035156 33.476562 
L 135.035156 33.476562 
L 135.035156 26.476562 
L 115.035156 26.476562 
z
" style="fill: #db7093"/>
   </g>
   <g id="text_32">
    <!-- genedex cond512, 8 threads -->
    <g transform="translate(143.035156 33.476562) scale(0.1 -0.1)">
     <use xlink:href="#DejaVuSans-67"/>
     <use xlink:href="#DejaVuSans-65" transform="translate(63.476562 0)"/>
     <use xlink:href="#DejaVuSans-6e" transform="translate(125 0)"/>
     <use xlink:href="#DejaVuSans-65" transform="translate(188.378906 0)"/>
     <use xlink:href="#DejaVuSans-64" transform="translate(249.902344 0)"/>
     <use xlink:href="#DejaVuSans-65" transform="translate(313.378906 0)"/>
     <use xlink:href="#DejaVuSans-78" transform="translate(373.152344 0)"/>
     <use xlink:href="#DejaVuSans-20" transform="translate(432.332031 0)"/>
     <use xlink:href="#DejaVuSans-63" transform="translate(464.119141 0)"/>
     <use xlink:href="#DejaVuSans-6f" transform="translate(519.099609 0)"/>
     <use xlink:href="#DejaVuSans-6e" transform="translate(580.28125 0)"/>
     <use xlink:href="#DejaVuSans-64" transform="translate(643.660156 0)"/>
     <use xlink:href="#DejaVuSans-35" transform="translate(707.136719 0)"/>
     <use xlink:href="#DejaVuSans-31" transform="translate(770.759766 0)"/>
     <use xlink:href="#DejaVuSans-32" transform="translate(834.382812 0)"/>
     <use xlink:href="#DejaVuSans-2c" transform="translate(898.005859 0)"/>
     <use xlink:href="#DejaVuSans-20" transform="translate(929.792969 0)"/>
     <use xlink:href="#DejaVuSans-38" transform="translate(961.580078 0)"/>
     <use xlink:href="#DejaVuSans-20" transform="translate(1025.203125 0)"/>
     <use xlink:href="#DejaVuSans-74" transform="translate(1056.990234 0)"/>
     <use xlink:href="#DejaVuSans-68" transform="translate(1096.199219 0)"/>
     <use xlink:href="#DejaVuSans-72" transform="translate(1159.578125 0)"/>
     <use xlink:href="#DejaVuSans-65" transform="translate(1198.441406 0)"/>
     <use xlink:href="#DejaVuSans-61" transform="translate(1259.964844 0)"/>
     <use xlink:href="#DejaVuSans-64" transform="translate(1321.244141 0)"/>
     <use xlink:href="#DejaVuSans-73" transform="translate(1384.720703 0)"/>
    </g>
   </g>
   <g id="patch_23">
    <path d="M 399.136719 18.798437 
L 419.136719 18.798437 
L 419.136719 11.798437 
L 399.136719 11.798437 
z
" style="fill: #ee82ee"/>
   </g>
   <g id="text_33">
    <!-- genedex cond64, 8 threads -->
    <g transform="translate(427.136719 18.798437) scale(0.1 -0.1)">
     <use xlink:href="#DejaVuSans-67"/>
     <use xlink:href="#DejaVuSans-65" transform="translate(63.476562 0)"/>
     <use xlink:href="#DejaVuSans-6e" transform="translate(125 0)"/>
     <use xlink:href="#DejaVuSans-65" transform="translate(188.378906 0)"/>
     <use xlink:href="#DejaVuSans-64" transform="translate(249.902344 0)"/>
     <use xlink:href="#DejaVuSans-65" transform="translate(313.378906 0)"/>
     <use xlink:href="#DejaVuSans-78" transform="translate(373.152344 0)"/>
     <use xlink:href="#DejaVuSans-20" transform="translate(432.332031 0)"/>
     <use xlink:href="#DejaVuSans-63" transform="translate(464.119141 0)"/>
     <use xlink:href="#DejaVuSans-6f" transform="translate(519.099609 0)"/>
     <use xlink:href="#DejaVuSans-6e" transform="translate(580.28125 0)"/>
     <use xlink:href="#DejaVuSans-64" transform="translate(643.660156 0)"/>
     <use xlink:href="#DejaVuSans-36" transform="translate(707.136719 0)"/>
     <use xlink:href="#DejaVuSans-34" transform="translate(770.759766 0)"/>
     <use xlink:href="#DejaVuSans-2c" transform="translate(834.382812 0)"/>
     <use xlink:href="#DejaVuSans-20" transform="translate(866.169922 0)"/>
     <use xlink:href="#DejaVuSans-38" transform="translate(897.957031 0)"/>
     <use xlink:href="#DejaVuSans-20" transform="translate(961.580078 0)"/>
     <use xlink:href="#DejaVuSans-74" transform="translate(993.367188 0)"/>
     <use xlink:href="#DejaVuSans-68" transform="translate(1032.576172 0)"/>
     <use xlink:href="#DejaVuSans-72" transform="translate(1095.955078 0)"/>
     <use xlink:href="#DejaVuSans-65" transform="translate(1134.818359 0)"/>
     <use xlink:href="#DejaVuSans-61" transform="translate(1196.341797 0)"/>
     <use xlink:href="#DejaVuSans-64" transform="translate(1257.621094 0)"/>
     <use xlink:href="#DejaVuSans-73" transform="translate(1321.097656 0)"/>
    </g>
   </g>
   <g id="patch_24">
    <path d="M 584.460156 18.798437 
L 604.460156 18.798437 
L 604.460156 11.798437 
L 584.460156 11.798437 
z
" style="fill: #6495ed"/>
   </g>
   <g id="text_34">
    <!-- genedex flat64, 8 threads -->
    <g transform="translate(612.460156 18.798437) scale(0.1 -0.1)">
     <defs>
      <path id="DejaVuSans-66" d="M 2375 4863 
L 2375 4384 
L 1825 4384 
Q 1516 4384 1395 4259 
Q 1275 4134 1275 3809 
L 1275 3500 
L 2222 3500 
L 2222 3053 
L 1275 3053 
L 1275 0 
L 697 0 
L 697 3053 
L 147 3053 
L 147 3500 
L 697 3500 
L 697 3744 
Q 697 4328 969 4595 
Q 1241 4863 1831 4863 
L 2375 4863 
z
" transform="scale(0.015625)"/>
      <path id="DejaVuSans-6c" d="M 603 4863 
L 1178 4863 
L 1178 0 
L 603 0 
L 603 4863 
z
" transform="scale(0.015625)"/>
     </defs>
     <use xlink:href="#DejaVuSans-67"/>
     <use xlink:href="#DejaVuSans-65" transform="translate(63.476562 0)"/>
     <use xlink:href="#DejaVuSans-6e" transform="translate(125 0)"/>
     <use xlink:href="#DejaVuSans-65" transform="translate(188.378906 0)"/>
     <use xlink:href="#DejaVuSans-64" transform="translate(249.902344 0)"/>
     <use xlink:href="#DejaVuSans-65" transform="translate(313.378906 0)"/>
     <use xlink:href="#DejaVuSans-78" transform="translate(373.152344 0)"/>
     <use xlink:href="#DejaVuSans-20" transform="translate(432.332031 0)"/>
     <use xlink:href="#DejaVuSans-66" transform="translate(464.119141 0)"/>
     <use xlink:href="#DejaVuSans-6c" transform="translate(499.324219 0)"/>
     <use xlink:href="#DejaVuSans-61" transform="translate(527.107422 0)"/>
     <use xlink:href="#DejaVuSans-74" transform="translate(588.386719 0)"/>
     <use xlink:href="#DejaVuSans-36" transform="translate(627.595703 0)"/>
     <use xlink:href="#DejaVuSans-34" transform="translate(691.21875 0)"/>
     <use xlink:href="#DejaVuSans-2c" transform="translate(754.841797 0)"/>
     <use xlink:href="#DejaVuSans-20" transform="translate(786.628906 0)"/>
     <use xlink:href="#DejaVuSans-38" transform="translate(818.416016 0)"/>
     <use xlink:href="#DejaVuSans-20" transform="translate(882.039062 0)"/>
     <use xlink:href="#DejaVuSans-74" transform="translate(913.826172 0)"/>
     <use xlink:href="#DejaVuSans-68" transform="translate(953.035156 0)"/>
     <use xlink:href="#DejaVuSans-72" transform="translate(1016.414062 0)"/>
     <use xlink:href="#DejaVuSans-65" transform="translate(1055.277344 0)"/>
     <use xlink:href="#DejaVuSans-61" transform="translate(1116.800781 0)"/>
     <use xlink:href="#DejaVuSans-64" transform="translate(1178.080078 0)"/>
     <use xlink:href="#DejaVuSans-73" transform="translate(1241.556641 0)"/>
    </g>
   </g>
  </g>
 </g>
 <defs>
  <clipPath id="p77023121a8">
   <rect x="10.38125" y="71.43625" width="410.2875" height="309.16"/>
  </clipPath>
  <clipPath id="pbdccb21974">
   <rect x="439.34375" y="71.43625" width="410.2875" height="309.16"/>
  </clipPath>
 </defs>
 <defs>
  <pattern id="hd7920a479b" patternUnits="userSpaceOnUse" x="0" y="0" width="72" height="72">
   <rect x="0" y="0" width="73" height="73" fill="#db7093"/>
   <path d="M 0 69 
L 72 69 
M 0 63 
L 72 63 
M 0 57 
L 72 57 
M 0 51 
L 72 51 
M 0 45 
L 72 45 
M 0 39 
L 72 39 
M 0 33 
L 72 33 
M 0 27 
L 72 27 
M 0 21 
L 72 21 
M 0 15 
L 72 15 
M 0 9 
L 72 9 
M 0 3 
L 72 3 
M 3 72 
L 3 0 
M 9 72 
L 9 0 
M 15 72 
L 15 0 
M 21 72 
L 21 0 
M 27 72 
L 27 0 
M 33 72 
L 33 0 
M 39 72 
L 39 0 
M 45 72 
L 45 0 
M 51 72 
L 51 0 
M 57 72 
L 57 0 
M 63 72 
L 63 0 
M 69 72 
L 69 0 
" style="fill: #000000; stroke: #000000; stroke-width: 1.0; stroke-linecap: butt; stroke-linejoin: miter"/>
  </pattern>
 </defs>
</svg>
